<svg xmlns="http://www.w3.org/2000/svg" xmlns:xlink="http://www.w3.org/1999/xlink" viewBox="0 0 3046 2052"><defs><style>.cls-2{fill:url(#linear-gradient);}</style><linearGradient id="linear-gradient" x1="2123.68" y1="149.78" x2="2123.68" y2="1507.15" gradientUnits="userSpaceOnUse"><stop offset="0.22" stop-color="#fff"/><stop offset="0.4" stop-color="#fff6e8"/><stop offset="0.64" stop-color="#f2c4c2"/><stop offset="1"/></linearGradient></defs><g id="Layer_1" data-name="Layer 1"><path class="cls-2" d="M3040.35,662c-13-.64-26,10.13-39,11.58-12.54,1.39-25.12,2.38-37.69,3.5-5.15.46-10-.62-13-5-6.29-9.11-15.54-11.07-25.63-11.59-19.61-1-39.06.62-58.46,3.23-15.33,2.07-30.59,4.67-46,6.39-16.58,1.86-32.45-.43-46.71-10.13-4.35-3-9.3-5-14-7.46-12.41-6.41-25.53-7.73-39.21-5.8a242.26,242.26,0,0,0-48.4,12.4c-21.2,7.65-40.54,13.37-60,24.29-20.1,11.26-44.24-9.71-67.22-6.11-11.26,1.76-17.34,35.55-26.82,30a79,79,0,0,1-16.45-12.57c-2-2-3.92-4.14-5.79-6.29a65.09,65.09,0,0,0-37.18-21.87,127.44,127.44,0,0,0-29.06-3.06q-28.7.75-57.39,1.43c-7.78.19-15.44-.9-23.08-2.18-9.59-1.59-16.27-6.35-19.72-15.93-4.29-11.94-8.36-23.84-8-36.74.18-5.79-1.42-11.29-2.36-16.9-1-5.84-4.5-9.36-10.05-11.08a106.65,106.65,0,0,0-23.85-5,36,36,0,0,1-11.81-2.66,40.76,40.76,0,0,0-21.47-3.18,130.35,130.35,0,0,1-13.42.62c-18.55.4-32.83-7.79-44.13-22-4.81-6.05-9.67-12.06-14.49-18.11-1.76-2.22,9-1.8,7.52-4.21-1.56-2.59-2.25-4.08,0-6.11,4.52-4.09-2.17-12.27,2.37-16.35a54.27,54.27,0,0,1,21.14-11.66c10.93-3.27,21.68-7.36,30.92-14.25,12.72-9.49,25.91-18.59,35.66-31.35,6.47-8.45,14.72-13.59,24.45-17.35,19.84-7.67,40.17-10.68,61.08-6.58,12,2.34,25.18,6.11,35.22-.24,7.3-4.62,19-4.5,27.5-6.11,8.78-1.67,11-12.93,19.88-14.24,17.28-2.57,32.68-9.73,47.29-18.86,11.14-7,10.65-18.75,6-26.71-2.48-4.26,4.16-1.42.14-4.36-2.63-1.92-1.56-12.23-3.06-15.28-6.27-12.78-30.25-21.09-35.48-34.68-3.31-8.61-10.69-13.91-20.28-15.91-7-1.45-13.82-9-20.63-7.46-11.08,2.43-21.77,8.72-32.46,5.23a90.55,90.55,0,0,0-11.87-2.79c-4.88-.89-10-1-14.46,1-9.41,4.29-19.49,5.61-29.41,7.77-7.56,1.64-11.33-13.41-18.74-11.24-5.3,1.55-5.15,3.3-9.17,0,5.16-26-21.67-16.7-15.27,0-7.33-8.53-13.38-3.6-23.2-8.66-4.39-2.26,4.92-8.85,1.81-12.73a18.57,18.57,0,0,1-3.06-18.34c5-14.62-12.7-25.59-10.8-40.45.51-4,.81-8.26-1.47-11.93-6.88-11.06-13.86-22.07-23.76-30.83-2.58-2.28-5.5-3.84-8.86-3.31-5.4.85-10.47-.07-15.63-1.46a31.19,31.19,0,0,0-13.36-.3,56.86,56.86,0,0,1-21.83-.61c-11.77-2.61-23.56-1.79-35.18.56-6.08,1.23-11.64,1.72-17.91.16-11.12-2.76-20.12,3.16-23.38,13.95a25.31,25.31,0,0,1-.95,3.52c-6.25,13.43-15.64,25.26-16.31,40.15-.25,5.47-7.7,5.81-12.23,9.17-7.51,5.57-4.9,17.5-12.86,22.48a67.13,67.13,0,0,1-34.68,10.31,164.42,164.42,0,0,0-38.58,5.64,90.13,90.13,0,0,1-29,3.1c-11.79-.72-23.64-.3-34.89,4.21-4.63,1.86-9.54,3-14.33,1.38-8.08-2.74-16-6-23.95-9.12-2.39-.93-4.33-2.6-4.42-5.32-.15-4.45-2.24-7.26-5.72-10a24.63,24.63,0,0,1-7.09-9.78c-3.18-8-9.29-9.66-16.75-9.18a90.06,90.06,0,0,0-9.67,1.26c-7.25,1.26-14.56,2.52-21.86,1.6s-13.74,1-20,4c-9.51,4.63-19,9.34-27.61,15.59-8.87,6.45-17.56-7.36-28.59-7.82-2-.09-5.2,17-7.24,17.07-3.54.1-6.21,1.48-7.59,5-3.7,9.5-14.57,16.61-15.72,26.81-.81,7.14-3.29,16.59,3.05,21.39,4,3,4.59,7.1,3.06,12.22-3,10.13,6,19.82,15.28,24.44,3.27,1.63,2.75,1.59,6.11,3.06,10.24,4.47,17.71,11.51,12.22,21.39-2.17,3.91.49,8.34-1.22,12.45-5.87,14.16-14,26.29-26.43,35.85-5.63,4.35-11,6.59-17.77,6.11a44.92,44.92,0,0,1-9.63-1.38,14.71,14.71,0,0,0-11.75,1.49c-3.21,1.75-6.32,3.71-9.38,5.71-10,6.53-18,15.27-25.68,24.25a65,65,0,0,1-20.9,16.51c-7.3,3.61-14.49,7.45-21.61,11.4-2.81,1.56-6.79,3.16-7.67,5.65-2.23,6.32-6.46,8.88-12.46,10-3.3.62-4.5,3.29-4.78,6.31-.14,1.6.24,3.24.26,4.86,0,4.48-.23,5.24-4.31,5.71-16.16,1.89-32.34,3.78-48.54,5.22-24.34,2.15-48.85,1.34-73.14,4.49-15.34,2-30.74,3.51-46.09,5.45-7.64,1-8,1.68-8.33,10.34-.19,5.44-.54,5.91-6,7.33-2,.51-4,.8-6,1.2q-30.53,6.18-60.68,13.92c-12,3.11-14.3,3-10.68,17.38,1.24,4.93,1.26,5.57-3.47,7.45-4.89,1.94-5.92,5.23-5.27,9.59.59,4,1.66,7.95,2.51,11.92s.7,4.44-3.58,6.26c-1.87.81-3.78,1.52-5.69,2.21-3.89,1.4-5.63,3.94-5.67,8.27-.11,10.18-.29,10.21-9.71,12.95-3.91,1.14-7.86,2.13-11.78,3.21q-4.12,1.14-8.23,2.33a5.1,5.1,0,0,0-4.09,5.31,46.9,46.9,0,0,0,.35,4.87,3.87,3.87,0,0,1-3,4.56c-2.33.72-4.65,1.54-7,2-4.6,1-5.88,3.43-5.17,8.12.84,5.58,2.32,11.06,3.48,16.39a10.51,10.51,0,0,1-.88,1.22c-3.16,3.09-9.12,1.9-10.94,6.91-1.63,4.48.62,8.82,1,13.23a14.49,14.49,0,0,1,.4,2.4c-.08,1.15,0,2.74-.74,3.36-4.3,3.82-3.94,8.61-3.3,13.56a4.33,4.33,0,0,1-2.86,4.85c-5.45,2.2-5.56,6.37-4.43,11.12.66,2.77,1,5.68,2,8.29,1.6,4,.89,6.6-2.79,9.28-9.35,6.82-9.48,7.8-6.11,18.18a19.66,19.66,0,0,0,1.29,3.43q2.55,4.74-2.29,6.91c-5.62,2.5-6.19,7.08-5,12.26,1.67,7.59,3.59,15.19,8.5,21.39,2.51,3.16,3.11,6.16,2.74,10.06-.82,8.9-3.08,17.75-2,26.74s.1,17.88-1.71,26.67c-2.3,11.16-5,22.24-7.27,33.4-3.11,15.08-7.41,30.08-3.85,45.74a9,9,0,0,1,.09,2.44c-.84,12.9,2.29,25.19,7.2,36.81,5.62,13.32,8.09,27.2,10.2,41.29a185.56,185.56,0,0,0,15.52,52.4c5.57,11.77,11.39,23.43,17.35,35,3.72,7.23,7.8,14.29,11.9,21.31,5.33,9.14,11.43,17.89,16.08,27.36a119.46,119.46,0,0,0,11.84,19.86,182,182,0,0,1,27.21,50,139.72,139.72,0,0,0,23.29,41.35c4.09,5.06,8.55,9.94,11.86,15.49,6.81,11.45,17.24,19.41,26.28,28.71a17,17,0,0,0,5,3.43c12.38,5.66,20.73,15.5,27.91,26.58,2.21,3.41,4,7.15,6.64,10.23,6.56,7.77,13.47,15,24.16,17.38,4.69,1,9,3.67,13.58,5.37,9.07,3.39,16.17,9.22,21.93,16.92a259.88,259.88,0,0,0,34.79,37.61c13,11.63,24.2,25.35,40.06,33.54a8.67,8.67,0,0,1,2,1.44c6.31,5.94,13.84,9.85,21.55,13.65,4.52,2.24,8.44,4,13.77,2.69a27.76,27.76,0,0,1,12.1.06c8.84,1.86,17.86,1.39,26.72,2.69a12.11,12.11,0,0,0,11.06-3.79c8.89-9.18,20.25-13.46,32.39-15.86,18-3.57,35.1-10.36,52.66-15.47a36.28,36.28,0,0,0,6.77-2.79c1.94-1,4.68-1.31,4.89-4.81-11.25-7.75-22-16.54-34.49-22.58-7.73-3.73-12.69-10-16.51-17.38-.77-1.49-1.12-3.2-.21-4.62,1.11-1.73,2.91-1,4.4-.46q21.88,7.69,43.75,15.48l29.92,10.62c2.31.82,4.53,1.6,7,.3,15.17-7.91,30.11-16.16,43.1-27.5,6.12-5.35,11.87-11.45,18.79-15.49,11.68-6.82,21.86-15.56,32.73-23.39,5.26-3.79,10.22-8,14.14-13.35,2.11-2.89,5.34-5,8.06-7.39,3-2.72,6.38-5.15,9-8.2,6.63-7.67,13-15.59,19.34-23.49a20.19,20.19,0,0,1,6.72-5c5.83-3.1,12-1.45,18-2.2s10,1.25,13.69,5.94c7.49,9.64,15.44,18.93,23.14,28.42,4.87,6,9.19,12.54,14.54,18.08,15.55,16.1,31.54,31.78,47.27,47.72a44.24,44.24,0,0,0,12,8.3,365.51,365.51,0,0,1,41.75,25.2c7.7,5.28,15,11.19,24,14.3,2.39.82,5.58,1.92,5.47,6.12-7.74.43-15.08,2-21.57,7-2.39,1.81-6.17,1.79-9.3,2.67-1.77.49-4.08-.13-5.36,3,11.18.89,22.1,1.57,33,2.68a58.32,58.32,0,0,0,17-.86c8.38-1.6,16.48-4.43,25.06-5.24,3.23-.31,6.64-1.82,7-5.73.44-4.86,3.58-5.59,7.46-6.31,6.39-1.19,12.71-2.82,19-4.36a8.1,8.1,0,0,0,6-5.43c1.75-4.53,4.66-8.66,6-13.27,2.26-7.58,7.83-10.75,14.49-13.54,5.1-2.14,10,2.19,14.2.18s6.53-7.23,12-7.7c3.33-.29,6.17-1.88,9-3.59,6.66-4,13.15-3.63,19.28,1.23,1.59,1.25,3,3,5.16,3,4.87-.16,9.79.3,14.56-1.2,3.09-1,4.72-2.86,4.8-6.18.07-2.85.39-5.69.62-8.53.69-8.61,10.19-14.43,17.73-7.09,3.68,3.59,7.69,5.77,12.94,5.88,1.92,0,3.88,1.08,5.7,1.92,1.55.71,3.05,1.22,4.66.61,8.36-3.18,17.14-5.59,24.93-9.81,12.55-6.81,25.55-12.61,38.24-19.09,9-4.61,18.11-9.08,26.72-13.39.68-3.93-2.78-4.39-3.65-6.6-3.44-8.79-1.63-18.4-4.32-27.33-.3-1,.48-2.34.78-3.52a33.18,33.18,0,0,1,8.43-14.67c2.8-3,6.22-5.54,8.25-9,3.69-6.19,9-9,15.77-10.17,5.49-.93,11-1.77,13.5-8.35,1.08-2.83,4.93-3.93,8-5.15,4.54-1.81,5-3,2.79-7-1-1.75-2.37-3.24-3.48-4.92-3.08-4.65-3.09-8,.33-12.19,5.27-6.48,11.93-9.47,20.45-8.09,4.74.77,5.89,0,7.68-3.54a37.48,37.48,0,0,0,1.7-4.5c3.73-10.76,10.65-15.79,21.87-15.63,3.56,0,7.11.54,11.08.86,1.18-5.93,3.79-11,6.59-15.89,4.32-7.56,11.47-10.09,19.72-7.39,1.87.61,3.65,1.5,5.25,2.17,3.7-2.42,5-6,6-9.41a13.65,13.65,0,0,1,5.61-7.73c6.93-4.52,14.15-8.36,22.83-6,2.15.58,3.81.64,5.63-.65q12.42-8.81,24.89-17.51c2.65-1.87,5.25-3.68,8.72-4,9.43-.77,9.45-.88,4.51-9.12-1.18-2-1.82-4.6-4.8-4.88-2.77,2.34-5.46,4.77-8.32,7-1.17.88-2.32-.19-3.24-1a2.51,2.51,0,0,1-.88-3.22,27,27,0,0,1,2.91-3.85c4.2-5,8.77-9.68,12.59-14.93,10.78-14.81,21.26-29.82,31.83-44.78,1.19-1.67,2.28-3.38,4.39-4a5.27,5.27,0,0,1,4.66.4c1.81,1.21,1.23,3,.42,4.27-1.72,2.76-3.78,5.3-5.66,8-3.08,4.33-3.31,4.54-.21,8.49a257.52,257.52,0,0,1,18.51,27.25,10,10,0,0,0,.7,1c1.52,1.94,3.51,2.34,5.17.62,6.23-6.43,12.25-13.06,18.41-19.55,1.34-1.4,2.63-3.94,4.75-3.09,3.77,1.5,5.11-1,6.71-3.2,1.42-2,2.6-4.15,4-6.15,7.47-10.66,14.92-21.34,22.51-31.92,2.59-3.62,5.34-3.3,7.3.61,1.46,2.9,2.73,5.91,4.2,8.8,1.18,2.32,3.21,2.76,4.7.88,8.08-10.21,17.15-19.85,23.8-30.93,9-15.1,19-29.25,30.85-42.25,11-12,20.94-24.91,31.27-37.48a16.53,16.53,0,0,0,3-5.27c2.88-8.87,8.84-15.39,15.59-21.48q15-13.49,29.54-27.4c5.29-5,10.53-10.13,13.9-16.87,2-4,5.66-6.86,9.23-9.63,18.31-14.24,36.54-28.6,52.94-45.09,3.74-3.76,7.83-7.22,12.77-9.31,12.13-5.11,24.31-10.13,36.47-15.17V659.19C3043.26,660.66,3041.81,662,3040.35,662Z" transform="translate(0.31 1)"/></g></svg>