<svg xmlns="http://www.w3.org/2000/svg" viewBox="0 0 3046 2052"><defs><style>.cls-2{fill:#fff;}</style></defs><g id="Layer_1" data-name="Layer 1"><path class="cls-2" d="M3020.72,1853.13a44.39,44.39,0,0,0-4.85-.45c-28.82-.3-57.5-4.57-86.38-3.24a44.67,44.67,0,0,1-8.5-.31c-3.35-.49-5.92-2.29-7.12-6.46,4.62-1.47,9.33-3,9.7-9.17.17-2.78,2.88-3.68,5.26-4.38,7-2.07,14-4.1,21.34-4.82a888.18,888.18,0,0,1,94.53-4.41v-36.52c-18.2.38-36.39.63-54.57,1.92-31.94,2.26-62.88,8.31-92,22.36a127.37,127.37,0,0,1-16.91,7c-16.69,5.28-33.5,10.16-50.25,15.24a48,48,0,0,1-18.08,1.85c-34.9-2.84-69.92-2.83-104.89-4-20.36-.66-40.62,1.72-60.86,3.91-12.13,1.32-24.3,2.29-36.45,3.4-15.81,1.44-31.61,2.94-47.42,4.28a39.07,39.07,0,0,0-17.36,5.28q-17.21,10.47-34.2,21.28c-4.48,2.86-4.84,6-1.81,10.28a12.82,12.82,0,0,0,1.51,1.91c6,5.53,11.79,11.25,18,16.47,4.56,3.84,10.47,4.8,16.14,4.08,3-.38,7.91-.57,7.17-6.23a3.18,3.18,0,0,1,2-.77c1.66.16,3.16.5,3.67-1.78.79-3.46,1.72-6.89,2.72-10.85,5,.61,9.74,1.26,14.55,1.75,1.53.15,3.63.56,4.13-1.51.82-3.41,3.22-3.26,5.62-2.77,5.58,1.13,11.31,1.94,16.63,3.87,8.21,3,16-.23,23.95-.59,4.21-5.72,10.31-3.48,15.67-3.36,10.57.24,21.13,1.38,31.7,1.62,17.9.42,35.82.51,53.72.6,14,.07,27.59,1.79,40.38,7.89a27,27,0,0,0,5.8,1.85c19.12,4.3,38.51,7,58.07,6.64,15-.28,30-2.13,45-3.61,13.75-1.36,27.34-4.08,41.29-3.81,18.32.34,36.57,1.22,54.86,2.63,24.22,1.88,48.35,4.13,72.11,9.24v-7.78a157.5,157.5,0,0,0-16.13-3.5c-7.16-1.22-14.43-2-20.89-6.13-3.73-2.42-8.48-2.67-13-3-28.46-2.14-56.85-2.52-85.28,1.23-12.86,1.7-26,1.6-38.89,3.27a33.1,33.1,0,0,1-13.34-.81c-14.91-4.42-30.29-6.15-45.55-8.59a16.35,16.35,0,0,1-11.13-6.67c-.71-1-1.18-1.62-.38-3,3.83-6.63,3.76-6.68.23-12.24a6.47,6.47,0,0,1,2.35-.51c15.48,3.11,31.26,3.89,46.72,8.06,19.11,5.16,38.53,10,58.8,9.51,26.46-.59,52.92-.49,79.23-3.9,6.15-.8,11.94,0,18,1.58,12.88,3.31,25.81,6.87,39.23,6.91v-19.6A188.39,188.39,0,0,1,3020.72,1853.13Z" transform="translate(0.31 1)"/><path class="cls-2" d="M297.15,2015.23c0-1.07-1.32-2.06-1.68-3.2-.61-1.9-1.74-4.14-1.22-5.79,1.46-4.61-1.64-8.79-.65-13.22a3.69,3.69,0,0,0-1.61-4.25c-3.85-2.12-4.11-5.73-4.54-9.4-1.72-14.52-3.44-29-5.25-43.54-.35-2.81-.55-5.81-1.7-8.32-3.42-7.46-2.72-15-1.68-22.76,1.73-12.94,5.61-25.41,8.13-38.16,1.94-9.76,4.85-18.83,12.76-25.68,2.7-2.34,4.76-5.55,6.67-8.63a34.9,34.9,0,0,1,15.39-13.37c5.46-2.6,11.57-5.09,15.51-9.36,6.91-7.52,15.25-10.89,24.75-11.47,7.65-.47,13.57-5.17,20.65-6.82a6,6,0,0,0,2.76-2.28c1.62-2,2.26-4.36,1-6.81s-3.39-3.75-6-3.14a80.52,80.52,0,0,0-10.43,3.33c-15.57,5.91-30.93,12.47-46.74,17.66-9.59,3.15-17.4,8.66-25.19,14.48-4.79,3.58-7.09,10.07-13.51,11.87-2.64,6.08-8,9.93-12.16,14.8a31,31,0,0,0-6.2,10.39A48.32,48.32,0,0,1,254.19,1871a6.05,6.05,0,0,0-2.16,4.1c-.55,8.89-3.39,17.34-5,26-1,5.29-2.16,10.47-5.16,14.85-2.82,4.1-3.2,8-1.85,12.66s1.3,9.49,1.87,14.18,1.56,9.53,1.73,14.37c.41,11.54,3.35,22.53,7.38,33.23a62,62,0,0,1,3.55,11.61c2.55,15.52,8,29.84,17.73,42.36a15.4,15.4,0,0,1,2.65,5h38.92c-1.06-3.78-3.14-7.17-5.22-10.59C304,2031.36,297.41,2024.87,297.15,2015.23Z" transform="translate(0.31 1)"/><path class="cls-2" d="M3016.73,1278.36c-5.26,0-10.51.86-15.77,1.28-4.94.38-9.76.74-12.4,6.06a3.24,3.24,0,0,1-5.23.91c-8.21-7.2-18.42-10.37-28.38-13.68-8.11-2.69-14.85-6.49-19.17-14-2.74-4.76-7-6.4-12.23-6.61-7-.29-13.84-.21-20.58,1.76-3.29,1-5.56-.45-7.1-3.19-1.79-3.18-3.21-6.59-5.15-9.68s-6.69-3.66-9.75-1.61c-2.78,1.85-3.06,6.86-.23,9.75a37.52,37.52,0,0,0,5.85,4.3,22.12,22.12,0,0,1,7.42,7.93c1,1.92,1.25,3.89-.4,5.62a3.63,3.63,0,0,1-4.48.55c-2.52-1.26-5-2.73-7.35-4.21-2.07-1.27-4-2.8-6.1-4a3.41,3.41,0,0,0-4.44.69,3.16,3.16,0,0,0-.19,4.4c2.36,2.78,4.64,5.74,7.47,8,7,5.57,13.24,12,19.65,18.21,3.9,3.79,7.19,7.6,8.21,13.16.83,4.47,3.79,7,8.39,7.59,11.28,1.51,22.51,4,33.83,4.46,19.48.71,38.93.37,58.32-3.5,12.61-2.52,25.31-4.57,37.78-7.81V1270.4C3036,1275,3027,1278.45,3016.73,1278.36Z" transform="translate(0.31 1)"/><path class="cls-2" d="M361.08,2024.15c-1.13-6.12-3.49-11.66-5.91-17.25a15.93,15.93,0,0,1-1.66-7,30.38,30.38,0,0,0-1.87-12,15.14,15.14,0,0,1-.5-9.59c1.53-5.57,1.86-10.88-.16-16.69-1.53-4.41-1.39-9.65-1-14.42,1.19-13.71,4.54-27,7.67-40.41a34.4,34.4,0,0,1,1.69-5.85c4.79-11.07,11-20.89,23.06-25.36,4.71-1.75,8.34-5.06,12.15-8.06s3.16-6.86-1.42-8c-6.84-1.77-13-4.15-17.38-10.25-1.86-2.6-4.73-2.57-7.63-.35-5.45,4.19-11,8.19-15.3,13.82-4.41,5.83-9.27,11.33-14,16.94A71.37,71.37,0,0,0,328,1897.2c-3.68,8.57-7.37,17.32-5.14,27.11a13.14,13.14,0,0,1-.46,7.21c-3.87,11.53-3.28,23.27-1.51,35a25.89,25.89,0,0,1-.2,9.65c-2.39,10.79.08,21,4.25,30.92,2.21,5.25,4.57,10.43,6.67,15.72,3.5,8.85,6.91,17.73,10.34,26.6h32.62a40,40,0,0,0-5.81-11.56C365.69,2033.59,362,2029.36,361.08,2024.15Z" transform="translate(0.31 1)"/><path class="cls-2" d="M3025.11,1193.69c-8.91-3.51-11.88-11.2-8-19.62.5-1.1,1.35-2,1.88-3.13,3.17-6.53,2.2-12.69-2.15-18.23-2.5-3.19-5.61-5.9-8.34-8.92-8.26-9.13-19-13.69-30.54-16.93a18.26,18.26,0,0,0-6-.58c-7.3.48-11.06,8-7.21,14.31,2,3.2,4.91,5.42,7.8,7.66a59.4,59.4,0,0,1,13.3,14.19c2,3.06,3.74,6.3,3.73,10.17,0,2.13-2.15,3.87-4.09,3-5.23-2.22-10.42-4.56-15.65-6.8a15.2,15.2,0,0,0-9.55-.9,6.72,6.72,0,0,0-5.33,5.92,15.94,15.94,0,0,0,.33,4.83,69,69,0,0,1,2.66,18.06c0,1.53.29,3.6,1.29,4.52,5.92,5.52,8.87,13.77,16.42,17.77,3.86,2,5.61,5.54,6.86,9.61,2.91,9.55,4.55,10.33,14.44,11.18,8.38.73,17.08-.53,24.92,4.34,3.51,2.18,8,1.85,11.89.44,3.39-1.23,6.31-.69,9.38.73.53.24,1.07.47,1.61.68v-44.69C3038.32,1198.43,3031.64,1196.26,3025.11,1193.69Z" transform="translate(0.31 1)"/><path class="cls-2" d="M3004.81,1692.83a329.72,329.72,0,0,0-83.23,10.71c-17.3,4.51-34.49,9.63-52,13.2a420.44,420.44,0,0,0-72.27,21.77,178.35,178.35,0,0,1-35.09,10.14c-4.38.78-8.66,2.13-13,3.29-1.65.44-3.09,1.5-3.05,3.25a4.33,4.33,0,0,0,1.78,3,84.22,84.22,0,0,0,23.14,10.67c6.75,1.9,12.29.6,15.73-5.56,1.82-3.26,4-4.52,7.51-5.08,7.22-1.18,14.74-2.08,21.13-5.61,9-5,18.76-7.75,28.41-10.82,12.79-4,25.78-7.46,38.54-11.6,28-9.09,56.77-13.93,86.07-16.06,15-1.1,30-2.67,45-3.75,10.42-.75,20.75-2.87,31.22-3v-14.55Z" transform="translate(0.31 1)"/><path class="cls-2" d="M613.08,2021.6c-1.62-7.54-3.19-15.08-4.66-22.65-.68-3.55-2-7.3-1.46-10.72,1.13-7.32.85-14.61.79-21.89-.08-11.44-.32-22.79,6.28-33,1.05-1.64,1.14-3.88,1.81-5.79,2.47-7.1,6.47-13.59,12.73-17.38,6.11-3.7,10.74-8.57,15.43-13.61,7.28-7.82,15.1-14.82,26-17.27a15.46,15.46,0,0,0,3.4-1.32,4.13,4.13,0,0,0,2.21-4c.1-3.85-2.45-6.53-6-5.86a48.75,48.75,0,0,0-8.18,2.38c-17.93,6.82-35.09,15-49.17,28.49-6.44,6.18-12.9,12.39-19.85,18-6.08,4.87-7.9,10.73-7.39,18.18a71.24,71.24,0,0,1-3.08,27.64c-1.89,5.71-2.28,11.93-3.17,18-.65,4.4-.56,9-1.59,13.26-2.13,8.89,1,17.1,4.43,24.5,4.63,10.11,8,20.64,12,30.94H628c-4.5-8.19-6.84-17.56-13.37-24.65A7,7,0,0,1,613.08,2021.6Z" transform="translate(0.31 1)"/><path class="cls-2" d="M518.14,2021c-5.72-15.39-6-31.74-7.75-47.8-.46-4.29,1.56-8.79,1.79-13.23.81-15.27,4.41-29.67,12.33-42.85,4-6.61,7.31-14.56,14.6-17.41,7.74-3,12.95-9.57,20.69-12.3,4-1.42,5.91-5.48,7.48-9.24,1.93-4.64-.12-8.73-2.6-12.5-1.16-1.76-6.44-.73-9.57,3.07-3.32,4-7.43,5.61-11.93,7.56-7.68,3.32-15.7,6.62-19.86,14.94a8.64,8.64,0,0,1-6.66,4.84c-3.63.53-5.2,3.08-6.91,6.11-2.56,4.57-7.26,7.31-13.35,9-.13-2.09-.1-4.12-.4-6.1-.58-3.85.53-8.25-3.43-11-4.95,2.7-1.53,7.07-2.07,10.64a12.16,12.16,0,0,0,.2,3.65c1.09,7.07-1.31,12.77-6.69,17.34a41.52,41.52,0,0,0-3.58,3.3c-.89,1-3.43,1.17-1.79,3.43,4.34.18,6.11-5.55,10.72-4.63a7.17,7.17,0,0,1,.55,2.4,262.76,262.76,0,0,0-1.68,66.71c1.13,10.94,4.26,21.46,6.78,32.09,1.28,5.38,5.21,10.12,2.71,16.26-.41,1,.82,2.78,1.61,4.12H532q-3.81-7.62-7.59-15.26C522.28,2029.82,519.82,2025.57,518.14,2021Z" transform="translate(0.31 1)"/><path class="cls-2" d="M3010.09,1542.7c-11.2,5.83-22.45,11.42-34.09,16.32a164.84,164.84,0,0,0-20.5,10.78c-5.93,3.54-6,6.82-1.15,11.59a14.73,14.73,0,0,0,1.82,1.63c12.11,8.37,24.7,15.78,39.3,19,6,1.32,12,2.5,17.89,3.9a47.49,47.49,0,0,0,15.75,1.15c2.49-.25,5-.89,3.61-4.54-1.2-3.07,1-4.69,3.14-5.67a25.14,25.14,0,0,1,7.06-1.62,2.2,2.2,0,0,0,1.78-1.45v-67.26C3033.09,1531.78,3021.38,1536.82,3010.09,1542.7Z" transform="translate(0.31 1)"/><path class="cls-2" d="M3017.84,1615c-3.13-.85-6.35-1.4-9.5-2.2a558,558,0,0,0-58.62-11.07c-29-4.11-56.64.87-84.21,8.52a2.82,2.82,0,0,0-1.11,4.84c7.51,6.91,15.73,13,25.32,16.49a307.85,307.85,0,0,0,30.31,9.25c19.16,4.85,23.27,4.34,40.8-4.51,4.64-2.34,10-3.77,13.41-8.15,3.6-4.57,8.45-5.94,14-5.8,4.06.1,8.13-.15,12.19-.32a19.28,19.28,0,0,1,9.49,1.64c11,5.28,22.82,7.73,34.74,9.64v-19.87C3036,1617.6,3027,1617.48,3017.84,1615Z" transform="translate(0.31 1)"/><path class="cls-2" d="M469.41,2030.39a26.23,26.23,0,0,0-5.31-10.8c-1.78-2.1-2.87-4.87-3.93-7.48-2.31-5.65-4.44-11.38-6.59-17.1a65.23,65.23,0,0,1-4.26-22.65c-.05-7.73.33-15.47.26-23.21-.14-16.48,6.52-29.09,21.16-37,7.2-3.88,5.69-9.68.21-13.21-5.14-3.32-10.64-3.69-16.06-.07a36.85,36.85,0,0,0-10,10.58c-4.51,6.73-8,14.15-13.71,20.1a15,15,0,0,0-2.81,5.36c-3.89,10.84-4.49,22.27-5.68,33.57-.24,2.32.58,4.8,1.13,7.16q3.24,13.63,6.64,27.23c1.38,5.55,2.89,11.15,6.23,15.84,6.78,9.52,9.82,21.12,16.45,30.7H485.9a54.3,54.3,0,0,0-5.25-3.75A25.28,25.28,0,0,1,469.41,2030.39Z" transform="translate(0.31 1)"/><path class="cls-2" d="M1377.08,2032.28a16.54,16.54,0,0,1,3,2c4.42,3.33,8.08,7.72,13,10.29.64-.81,1.15-1.18,1.09-1.42-3.26-13.12-12.16-21.65-23.33-28.2-3-1.76-5.64-1.11-7.41,1.71a55.27,55.27,0,0,0-4.36,8.66c-1.37,3.38-2.3,6.94-3.56,10.38-.86,2.35-2.93,3.12-4.89,2-8.08-4.72-15.79-9.77-21.07-18-7.46-11.62-14.55-23.53-23.61-34a57.63,57.63,0,0,0-9.55-9.32c-6.31-4.54-11.73-2.94-14.38,4.4-2.47,6.86-4,14.06-5.94,21.1-1,3.49,0,8.08-3,10.29-3.91,2.88-5.93-2.91-9.34-3.44a1.89,1.89,0,0,0-2.43,1.85c0,4.18,1.6,7.93,3.71,11.45,2.25,3.74,4.63,7.41,6.93,11.07a10.89,10.89,0,0,0,2.39-.72c2.52-1.44,2.74-6.51,5.43-5.9,4,.9,1.78,5.47,2.47,8.4.47,2,.49,4,.94,6a3,3,0,0,0,1.56,1.65,2.35,2.35,0,0,0,3.12-1c1.5-2.86,2.82-5.81,4.12-8.77,1-2.22,1.2-5.72,2.82-6.54,5.32-2.68,6.09-8.2,8.3-12.34,2.13.1,2.95,1,3.42,2.18a148.37,148.37,0,0,0,17.18,30.82,26,26,0,0,1,1.74,2.67h45.75c.68-5.11,1.36-10.23,2.17-15.32C1373.71,2032.32,1375.23,2031.45,1377.08,2032.28Z" transform="translate(0.31 1)"/><path class="cls-2" d="M3006.44,1654.29a340.52,340.52,0,0,1-46.29-.3c-14.23-.91-28.43-1.4-42.15-5.81a52.14,52.14,0,0,0-7.19-1.37c-22-3.67-43.93-8.18-66.17-10.82-9.8-1.16-19.34-2-29.09-.38a101.37,101.37,0,0,1-13.35,1.28c-10.09.3-18.95,4.34-27.66,8.81-3.74,1.93-4.32,4.63-2.07,8,1.37,2,2.88,3.94,4.37,5.88,10.16,13.22,24.33,15.57,41.83,12.11.51-.1,1.17-1.22,1.15-1.84-.08-2.71,1.29-3.54,3.73-3.33,3.22.27,6.44.51,9.66.76,3.08-5.34,9.07-4.34,13.7-6.29,1.17-.49,2.29-1.07,2.17-2.47-.26-3.26,1.94-4.18,4.4-4.82a91.2,91.2,0,0,1,27.8-3c18.69,1,37.26,2.91,55.5,7.42a107.27,107.27,0,0,0,30.18,3.56c17.88-.71,35.79-.64,53.69-1.09,8-.2,16-.37,24,.08v-11C3032,1651.76,3019.29,1653.37,3006.44,1654.29Z" transform="translate(0.31 1)"/><path class="cls-2" d="M656.28,1998.18c1.32-15.87,3.09-31.62,14.36-44.3,1.06-1.2,1.52-2.9,2.51-4.18,9-11.52,23.2-20.08,39.39-12,.73.36,1.43.78,2.17,1.12,3.67,1.67,7.31,1.65,10.09-1.42s5.37-6.36,3.45-10.92c-1.73-4.12-4.71-6.41-9.38-6.5-9.81-.17-19.46.52-29,3.41-14.83,4.52-26.81,12.23-36.08,25.28-9,12.67-11.07,26.87-12.85,41.3-.84,6.77.44,13.79.74,20.7a60.53,60.53,0,0,0,3.27,16.72,186.57,186.57,0,0,1,6,22h18.9c-2.15-5.06-5.54-9.55-7.65-14.66C654.92,2017.16,654.69,2017.23,656.28,1998.18Z" transform="translate(0.31 1)"/><path class="cls-2" d="M3033.44,1072.51c.26,11.89,3.48,23.13,8.13,34,.95,2.2,2.21,4.27,3.13,6.49v-45.71c-.88-.35-1.76-.69-2.66-1C3036.4,1064.48,3033.32,1066.56,3033.44,1072.51Z" transform="translate(0.31 1)"/><path class="cls-2" d="M3044.13,1115.16a2.71,2.71,0,0,1-2.12.77,13.28,13.28,0,0,1-4.49-1.63c-6.24-4.21-13.42-5.58-20.58-6.88a34,34,0,0,0-9.61,0c-2.31.25-3.32,2.41-3.14,4.5a13.16,13.16,0,0,0,1.76,5.7c4.3,6.85,8.68,13.66,13.37,20.25,1.59,2.22,4.06,3.89,6.34,5.52,1.4,1,3.43.84,4.15-.87,3.07-7.33,8.53-9.44,14.89-9.64V1114A2.74,2.74,0,0,1,3044.13,1115.16Z" transform="translate(0.31 1)"/><path class="cls-2" d="M803.53,2028.39a3.61,3.61,0,0,0-6.06-.76,23.75,23.75,0,0,0-3.43,4.94c-2.66,5.59-5.22,11.23-7.78,16.87h19.33C810.08,2042,806.63,2035.18,803.53,2028.39Z" transform="translate(0.31 1)"/><path class="cls-2" d="M1429.91,1382.14c-6.16-7.57-13.27-14.57-18.23-22.86-4.19-7-9.71-11.73-16.14-16.11-15.26-10.37-28.41-23.08-40.2-37.2-5.47-6.54-11-13.12-13.67-21.52a28,28,0,0,0-4.08-7.48c-6-8.29-11.46-16.76-13.78-26.93-.44-1.93-1.71-3.68-2.63-5.5-5.1-10.11-7.76-21.5-15.72-30.14a5.37,5.37,0,0,1-.91-2.25c-1.59-6.08-5.53-10.8-9-15.85-11.19-16.48-24.08-31.87-32.44-50.18-9-19.62-21.3-37.56-28.7-58a77.73,77.73,0,0,0-4.21-10.15c-3.53-6.59-5-13.71-6.2-21-1.94-11.23-3.46-22.61-6.51-33.55-3.48-12.51-8.07-24.7-11.38-37.31-2.08-7.95-4.37-15.52-2.49-23.92,1-4.29.51-8.93.51-13.4A116,116,0,0,1,1206.5,927c1.52-8,3.17-16,4.73-24,.63-3.19.74-6.56,1.84-9.57,6-16.44,6.63-33.46,5.71-50.63a77,77,0,0,1,4.33-31.22c4.66-12.61,9.2-25.26,13.76-37.9a20.38,20.38,0,0,1,4.5-7.17,159.93,159.93,0,0,0,22.35-30.48,22.54,22.54,0,0,1,5.29-6.59c12.51-9.68,24-20.89,38.82-27.23q7.29-3.1,14.53-6.3c2.45-1.07,4-2.82,3.62-5.67a6.27,6.27,0,0,0-4.55-5.23c-4-1.33-8.14-1.49-11.79.85-5.51,3.51-11.79,2.67-17.3,3.68-5.29-.61-10.22-.81-15-1.82-7.22-1.53-12-12.41-8.36-18.78a9.09,9.09,0,0,1,9.13-4.94c3.72.35,3.84,3.35,4.53,6.21,1.13,4.66,3.43,6.07,7.81,5.27,9.43-1.71,14.27-8.72,18.27-16.44.73-1.41-.43-3.38-2.16-3.81a18.29,18.29,0,0,0-6-.43,157.33,157.33,0,0,0-17,2c-10.35,2.12-21.19,3.49-29.87,10-10.07,7.58-21.33,13.54-30.49,22.35-3.58,3.45-7.66,6.17-12.82,6.44-4.26.22-6.58,2.81-8.32,6.23-8.86,17.43-17.78,34.84-24.9,53.08-1.51,3.85-1.79,7.79-2,11.91-.67,11.64-.23,23.7-8.47,33.5a5.67,5.67,0,0,0-1,2.23c-3,12.26-7.47,24.39-8.54,36.82-1.16,13.54-3.86,27.34.12,41.14,1.66,5.75.85,12.17,1.72,18.2,1.52,10.48,3.19,20.92,3.76,31.52a35,35,0,0,0,2.06,10.73c2.53,6.4,6.47,12.33,5,19.71,5.12,15,6.58,30.82,11,46,1.14,3.9,2.87,7.76,3.25,11.75,1.73,18.41,9.35,35.33,13.08,53.22a4.1,4.1,0,0,0,1,2.21c5.67,4.9,6.64,11.86,8.51,18.51.75,2.65,2.64,5,4.11,7.42,10.1,16.71,21.12,32.86,29.63,50.54,4.36,9,7.48,19,15.87,25.71,1.14.92,1.55,2.82,2.15,4.33a37,37,0,0,0,8,12.21c2,2,3.92,4.22,4.19,7.25.94,10.49,7,17.93,14.31,24.78,4.77,4.46,9.38,9.3,11.85,15.41,6.12,15.12,14.12,29.31,21.12,44a67.27,67.27,0,0,0,14.28,19.63c3.8,3.68,7.92,7.11,11.27,11.17,8,9.76,17.62,17.95,26.58,26.75a79,79,0,0,0,12.15,10.17c10.63,6.88,19.9,15.34,29,24,6,5.72,13.63,8.67,20.37,13.1.34.23,1.39-.49,2-.92a1.17,1.17,0,0,0,.07-1.11Q1431.81,1384.47,1429.91,1382.14Z" transform="translate(0.31 1)"/><path class="cls-2" d="M1224.08,510a35,35,0,0,0-9.63-1.2,70.62,70.62,0,0,0-12.16.93c-8.14,1.4-16.24.47-24.37.26-4.56-.12-7.74-1.62-9.26-6.2a50.79,50.79,0,0,0-3.45-7.81c-3-5.58-7.34-7.22-13.16-4.77a27.16,27.16,0,0,0-6.13,3.92,40.75,40.75,0,0,1-10.41,6.28c-14.89,5.93-28.15,14.57-40.61,24.54-4.12,3.29-8.14,6.72-13.27,8.56-8.23,3-15,8.19-20.64,14.76a46.21,46.21,0,0,1-12.12,10,71.23,71.23,0,0,0-22.95,21.57,151.84,151.84,0,0,0-12.63,20.87c-4.56,9.55-8.84,19.21-14.07,28.44-2.17,3.83-3.43,8.25-4.62,12.54-5.53,20-10.48,40.13-17,59.84-2.3,6.94-4.27,14-6,21.13A63.23,63.23,0,0,0,969.76,737c-.25,10.58.1,21.17-.08,31.74-.12,6.75,1.48,11.48,9.11,13.17,3.78.83,7.19,3.72,10.51,6a23.49,23.49,0,0,1,5,5.21,4.36,4.36,0,0,1,.13,5.63c-1.29,1.69-2.92,3-5.08,2.87a19.81,19.81,0,0,1-4.67-1.24c-1.91-.62-3.75-1.65-5.7-1.94-4-.61-8.1,3.06-8.25,7.16a6.57,6.57,0,0,0,7.14,6.58,28.59,28.59,0,0,0,8.34-1.46c16-5.94,16.91-11.84,13.52-23.78a27.66,27.66,0,0,1,1.7-20.13c5.36-11.46,9.25-23.47,13.07-35.5,10.21-32.23,22.14-63.82,35.48-94.88.91-2.1,1.17-4.72,4.26-5.67-.1,1.28-.28,2.39-.26,3.49,0,.72.08,1.8.51,2a2.2,2.2,0,0,0,2.11-.33c5.93-7.75,13.75-14,18.57-22.57a185.53,185.53,0,0,1,48.39-55.94,281.65,281.65,0,0,1,43.89-28.67c9.11-4.7,18.9-8.25,29.29-7,6.45.75,12.91,1.4,19.36,2.2,5.2.65,10.59,1.25,13.46,6.89.79,1.56,3,1.07,3.68-.52C1237,521.36,1233.19,512.65,1224.08,510Zm-95.47,23c-19.44,9.33-35.85,22.41-46.93,41.38-1,1.76-2.21,3.43-3.37,5.09s-2.22,3.59-4.56,3.63c-1.65,0-3.76-4.71-3.47-7.25s1.85-4.46,3.2-6.48a146.22,146.22,0,0,1,42.45-41.57c1-.66,2.12-1.23,3.08-2,3.54-2.74,8,.16,11.76-2.19,3-1.91,5.3-5.39,9.36-5.35,4.61,0,8.3-3,13-3.12A87.73,87.73,0,0,1,1128.61,533Z" transform="translate(0.31 1)"/><path class="cls-2" d="M1837.36,2005.62a1.16,1.16,0,0,1,0,.18h.16Z" transform="translate(0.31 1)"/><path class="cls-2" d="M2063.53,1956.74c-2,.08-4.07.15-6.1.38-17.38,2-34.78,3.9-52.15,6.07-10.89,1.36-21.63,2.83-32.77,1.78-14.71-1.38-29.33.82-43.36,5.51-10.52,3.51-21.44,4.73-32.22,6.75-4.86.91-9.65.34-14.51-.76a74,74,0,0,0-15.69-2.17,126.81,126.81,0,0,1-33.71-5c-4.7-1.32-9.56-2.06-14.29-3.27a57.06,57.06,0,0,0-20.58-1.5q-24.9,2.7-49.82,5.08a70.22,70.22,0,0,1-10.94.32c-17.07-1.07-34.13-2.3-51.19-3.49a80.54,80.54,0,0,1-19.09-4c-25.63-8.25-50.78-17.57-73.68-32.08-1.87-1.18-3-.11-3.16,3-.25,3.78-1.2,4.52-3.73,2.71-4.31-3.07-8.49-6.32-12.75-9.47-20-14.79-40.92-28.29-64-37.8a74,74,0,0,1-23.17-15.41c-21.83-20.8-44.08-41.15-68.06-59.46a37.47,37.47,0,0,1-11.42-14c-4.59-9.6-10.61-18.32-16.84-26.89-1.3-1.8-2.33-4.44-6.08-3.79,1.24,7.11,2.43,14.23,3.77,21.33a30.91,30.91,0,0,0,1.88,5.8c5,12.13,10.91,23.75,19.47,33.73,12.24,14.26,25.53,27.51,41.43,37.7a168.36,168.36,0,0,1,28.43,23c18.65,18.61,39.67,33.67,65,42a15.4,15.4,0,0,1,3.27,1.64q20.34,12.42,40.63,24.89c1.88,1.16,2.28,2.62,1.61,5.07-1.68,6.13-1.07,7.19,4.45,8.76,18,5.13,36,10.44,54.12,15,21.28,5.4,42.73,10.11,64.1,15.15,1.56.37,3.64.56,4.48,1.62,4.12,5.26,9.94,4.93,15.59,5.26,19.51,1.15,39,2.53,58.56,2.41,9.34-.07,18.69,1.12,28,1.68,4.47.27,9,.63,13.42.52,5.4-.14,6.51-2.38,4.94-9.07a187.87,187.87,0,0,1-45.9-4.19,80.24,80.24,0,0,1-21.85-7.46c-4.6-2.46-9.83-3.91-14.93-5.22-7.88-2-15.9-3.51-23.85-5.27-3.06-.67-6.35-.82-9.07-3.69,3.57-.86,6.68-1.7,9.82-2.34a8.91,8.91,0,0,1,3.6.07c11.94,2.71,24.42-1.27,36.27,3.06,2.16.78,4.85.21,7.29.07,5.69-.32,11.39-.6,17.06-1.19a78,78,0,0,1,26.72,1.54,77.76,77.76,0,0,0,18.12,1.88c16.29.17,32.59.1,48.78,2.45a81.2,81.2,0,0,0,12.19.55c1.5,0,3.82-.43,4.35-1.42,2.6-4.85,7.35-4.6,11.61-5.4,5.6-1,11.24-1.89,16.88-2.71a193.23,193.23,0,0,1,30.36-2.38c20.35.26,40.86,0,60.64-5.62,12.61-3.59,25.49-5.15,38.34-7.08,3.69-.55,6.48-2.27,5.38-3.37C2067.6,1956.45,2065.54,1956.67,2063.53,1956.74Zm-427.09,12.44c-3.22-1-6.31-2-9.34-3.12-.64-.23-1.49-1.07-1.5-1.65,0-1.62,1.33-1.6,2.45-1.39a94.37,94.37,0,0,1,9.46,2.1c.89.27,1.41,1.72,2.1,2.63Z" transform="translate(0.31 1)"/><path class="cls-2" d="M649.21,1341l.14-.16-.26,0Z" transform="translate(0.31 1)"/><path class="cls-2" d="M645.79,1337.74a468.13,468.13,0,0,1-55.65-32.7c-9.29-6.44-18-13.62-28.77-17.61-1.08-.4-1.86-1.57-2.86-2.25a104.72,104.72,0,0,0-10.18-6.67c-5.53-2.87-9.87-7.1-14.35-11.23-11-10.1-15.55-24.68-25.14-35.75a7.38,7.38,0,0,1-1.21-3.41c-2-10.79-9.38-14.52-19.4-14.71-2.85-.06-5.72.25-8.54,0-5.65-.56-11.37-1-16.89-2.23a9.2,9.2,0,0,1-5.94-13.54c1.89-3.26,5-5.28,8.37-6.78.78-.36,2.53.3,3.19,1.05a12.17,12.17,0,0,1,2.08,4.24c1.73,5.45,1.68,5.5,6,5.32a35.64,35.64,0,0,0,4.84-.53,2.83,2.83,0,0,0,1.65-4.7c-6.28-8-12.21-16.28-19.1-23.69-6-6.46-12.34-13-21.66-15.09a16.62,16.62,0,0,1-9.13-5.82c-4.91-6-4.19-11.17,2.25-16.37,3.17-2.56,3.42-3.93,1.24-7a26.26,26.26,0,0,0-2.27-2.87,58.6,58.6,0,0,1-15.18-30,34.26,34.26,0,0,0-5.44-12.16c-6.29-9.63-11.05-19.94-11.67-31.62-.26-5-2.85-8.18-6.33-11.24-5-4.39-10.7-3.39-16.25-2.31-6.39,1.24-11.35,4.87-12.35,11.68-.71,4.91-1.56,9.57-4.29,13.8a7.1,7.1,0,0,0,.63,9.06c4.81,5.37,6.79,11.9,8.52,18.62.5,2,1.41,3.82,2.1,5.73q10.4,28.62,20.76,57.25a14.59,14.59,0,0,1,1.28,4.69c0,8.8,5,15,10,21.54,5.25,6.73,12.43,11.58,17,18.93,3.19,5.09,6.92,9.78,12.25,13.3a24.66,24.66,0,0,1,8.46,10.22c4.47,10.2,12.18,18.17,17.78,27.58,6.39,10.72,14.78,19.37,27.71,22.36a26.31,26.31,0,0,1,14.39,8.72,27.2,27.2,0,0,0,15.49,9.09,36.49,36.49,0,0,1,17.06,9.08c8,7.41,17.55,11.18,27.65,14.64,18.4,6.3,36.54,13.36,54.65,20.46,9.86,3.86,19.62,7.56,30.47,6.13C648,1339.8,647.09,1338.4,645.79,1337.74Z" transform="translate(0.31 1)"/><path class="cls-2" d="M836.67,1323.56a169,169,0,0,1-26.27-9.75c-11.66-5.61-23.55-11.13-32.45-21.16-2.14-2.41-5-4.17-7.43-6.31-6.1-5.34-13.6-9.79-17.91-16.33-6.66-10.1-15.08-18-24-25.73a38.12,38.12,0,0,1-5.84-6.21c-4.61-6.34-10.47-11.32-16.66-16-4.87-3.68-9.66-7.45-14.55-11.1-7.59-5.68-14.25-12.06-17.83-21.17a32.91,32.91,0,0,0-4.56-7.19,25.06,25.06,0,0,1-4.75-9.8c-1.29-6.07-4.2-11.44-7.41-16.65-3.83-6.23-7.73-12.37-9.9-19.49-1.31-4.31-4.06-8-7-11.36-6.56-7.59-10.82-16.1-10.7-26.41a11.76,11.76,0,0,0-.8-3.5c-.41-1.34-3-2.07-4.18-1.23a6.14,6.14,0,0,0-1.89,1.47c-2.94,4.89-6.45,9.66-.35,15,1.72,1.5.69,4-1.29,5.12-6.13,3.48-8.06,8.21-6.47,15.29,1.34,5.91-1.77,11.08-5.72,15.46-3.27,3.62-6.54,7.26-10.1,10.59-2.9,2.72-2.5,5.34-1.48,8.78,2.47,8.24,8.57,13.93,14.75,18.58,5.78,4.34,8.88,9.11,10,15.78.72,4.15,2.22,7.47,6.6,9.41,2.38,1,4.1,3.8,5.87,6s3.28,4.65,4.85,7c4,6.11,8.37,11.5,15.4,15,5.13,2.57,10.38,6.35,12.72,12.6.8,2.14,2.75,4,4.57,5.57,5.9,5,12.21,9.49,16.78,15.88a5.19,5.19,0,0,0,2.85,2.18c8.09,1.27,13.49,6.89,19.74,11.35a40.23,40.23,0,0,1,11.43,12.23c5.7,9.28,14,15.55,25.21,17.27a33.26,33.26,0,0,1,17.48,8.06,37.54,37.54,0,0,0,11.44,6.81c5.66,2.25,11.16,4.92,16.83,7.15,5.3,2.08,10.68,3.79,15,7.82,3.15,2.91,7.3,3.36,11.73,3.21,6.29.5,11.74-1.45,15.61-7.06a38.18,38.18,0,0,1,4.45-5.77C846.69,1328.93,844.33,1325.79,836.67,1323.56Z" transform="translate(0.31 1)"/><path class="cls-2" d="M1695.3,2005.77q-19.46-5.26-39-10.25a41.13,41.13,0,0,0-9.61-1.57,59.07,59.07,0,0,1-22.5-4.93c-4.51-1.87-9.21-3.27-13.83-4.87-17.31-6-34.69-11.81-51.92-18.06-32.27-11.71-62.46-27.78-92.08-44.95a68.11,68.11,0,0,1-12.77-9.39c-16.34-15.54-35.13-27.74-53.77-40.15-4.71-3.14-10.07-5.42-10.93-12.21-.2-1.6-2.43-3.17-4-4.33a79.25,79.25,0,0,0-9.28-5.87,30.77,30.77,0,0,1-13.67-13.41c-2.62-5-6.3-9.49-9.34-14.31-5.86-9.27-12.86-17.91-17.2-28-3-6.88-6.64-13.11-11.93-18.27a40,40,0,0,1-10.14-16.41,82,82,0,0,0-9.73-19.59c-7.67-11.55-5.37-23.56,5.25-32.36.31-.26.67-.46,1-.71,6.05-4.65,6.18-5.12,1.94-10.91a73.06,73.06,0,0,0-5.49-6.54c-6.56-7.08-11.62-7.35-18.84-1.36-2.7,2.24-4.43,5.79-9.12,6.87-2.58-12.51-2-24.26,3.16-35.8,6.27-14.09,5.92-11.95-2-21.59a24.79,24.79,0,0,1-2.55-4.16c-4.94-9.39-11.32-17.84-17.43-26.46-.7-1-1.74-2-2.89-1.37-.89.52-2,2-1.81,2.82,1.21,7.2,2.31,14.47,4.18,21.52,1.68,6.35,3.69,12.43,1.33,19.09-.61,1.72-.07,4,.43,6,1,3.93,1.91,8,3.71,11.61,3.58,7.14,3.17,14.08.48,21.24-1.14,3-1.68,6.35-3.07,9.27-1.88,4-2.16,7.53-.13,11.55s3.46,8.13,3.16,12.87a10.71,10.71,0,0,0,5.48,10.23,16.24,16.24,0,0,1,7.44,9.38c1.5,5.29,4.06,9.62,8.58,12.9,2,1.44,2.93,3.86,3.37,6.34s.76,4.83,1.36,7.18c1,3.8,4.31,5.8,6.71,8.52,2.86,3.24.42,8.62,3.88,11.24,4.62,3.51,5.54,8.29,7,13.34a21.94,21.94,0,0,0,7.42,11c1.59,1.24,3.55,2.51,4.31,4.23,3.5,8,10.94,13.08,14.88,20.77,1.43,2.79,4.11,5,6.46,7.24,4.34,4.15,9.64,7.32,11.3,13.88.5,2,3.16,3.64,5.17,4.94,13.35,8.62,26.26,17.85,38.89,27.49,2.25,1.71,4.53,3.59,7.66,3.29,7.33-.7,11.9,4.27,14.38,9.47,5.37,11.28,14.48,18.47,24.09,25.36a470.15,470.15,0,0,0,46.7,29c21.83,12.09,44.5,22,69,27.33,7.1,1.55,13.89,4.6,20.78,7.09,4.59,1.65,9,4.12,13.68,5.21,17.11,4,33.48,10.14,50,16,5.7,2,11.69,4,17.92,3.2,8.91-1.11,17.79-1.71,26.76-.6a9.45,9.45,0,0,0,8-2.3c1.22-1.17,2.2-2.65,1.56-4.31A4.2,4.2,0,0,0,1695.3,2005.77Z" transform="translate(0.31 1)"/><path class="cls-2" d="M2425.93,1812.71c-4.32-.31-7.95-1.37-10.56-5a17,17,0,0,1-3.52-11.41c.14-2,.41-4.06.43-6.09,0-1.62-.09-3.55-2.1-3.85a8.51,8.51,0,0,0-4.64.55c-3.51,1.65-5.05,5.08-6.91,8.26-2.38,4.08-3.39,4.4-8,3.24-6.67-1.69-12.94-5-20.1-4.71-4.69.16-7.53-1.6-7.81-7-.17-3.18-2.39-4.09-5.22-2.78a86.88,86.88,0,0,0-10.73,5.74,13.94,13.94,0,0,1-11.51,1.95c-5.5-1.23-11.1-1.79-16.88-.09-4.85,1.43-7.4.26-9.49-5-2.17-5.45-5.69-6.34-10.55-5.54-2.41.39-4.76,1.12-7.16,1.51s-3.64,1.68-3.6,4c0,2,.28,4,.41,6.08.18,2.77-.75,4.82-3.78,5.24a14.78,14.78,0,0,0-10.08,6.28c-2.66,3.6-5.68,3.65-9.63,2.2-18.72-6.89-36.79-5-54,4.89-3.7,2.12-6.66,2.45-9.66-1.08a7.69,7.69,0,0,0-4.21-2.16c-9.25-1.82-18.46-2.94-27.49,1.27-5.16,2.4-10.64,4.13-15.73,6.67a95.19,95.19,0,0,0-19.11,13.06c-3.38,2.91-2.9,6.43,1.16,7.18,5.73,1.07,10.68,3.74,15.78,6.23,13.25,6.45,13.27,6.42,13,20.22,7.17,0,10,.6,13.37,3.25a58.37,58.37,0,0,1,5.22,5.1,6.76,6.76,0,0,0,6.68,2c1.65-.39,3.22-1.35,3.37-3.05a3.66,3.66,0,0,0-1.88-2.77c-8.21-3.85-13-10.81-17.14-18.43a7.25,7.25,0,0,1,1.19-9c2.82-2.91,5.93-5.53,9-8.22,8.55-7.55,12-7.75,21.64-2.06,4.1,2.43,6.93,5.5,8,10.19a94.83,94.83,0,0,0,2.59,9.41c2.06,6,4.25,7.68,11,6.52,5.66-1,8.32,1.78,10.7,5.85,1.51,2.59.22,4.94-2.76,5-5.68.09-11.37,0-17.06.22-1.57,0-3.48.35-3.78,2.32-.35,2.18,1.61,2.51,3.11,2.78q22.18,3.85,44.4,7.6a32.48,32.48,0,0,0,6.06.51,7.65,7.65,0,0,0,3.39-1.17c.55-.31.84-1.18,1.07-1.86a1.18,1.18,0,0,0-.57-1c-1.49-.61-3-1.08-4.54-1.66-10.23-4-18.33-10.34-22.4-20.95-2.45-6.35-.4-15.17,5.42-19.74,5.05-4,11.24-5.19,17.27-2.58,5.25,2.26,9.89,5.73,12.63,11.06,1.31,2.53,2.45,5.15,3.65,7.73,1.32,2.83,3.42,4.87,6.64,4.24,4.79-.93,8,.94,9.87,5,1.75,3.78,5,5.11,8.56,6.19,2.72.83,5.47,1.57,8.19,2.38s6.78,2.84,7.8.25c1.58-4-3.58-4.1-5.92-5.8-1-.71-2.18-1.12-3.16-1.82-10.76-7.74-13.71-19.39-7.91-31.19a14.53,14.53,0,0,1,15.16-7.74c10.19,1.8,16.14,8.7,20.47,17.42a7.06,7.06,0,0,1-.06,5.91,9.25,9.25,0,0,0-.63,5.92c.88,3.38,3.92,6.13,7.11,5.29,10.19-2.68,20.29-5.7,30.42-8.6a3.31,3.31,0,0,0,1.07-.59c7.66-6.1,16.68-10,24.8-15.34,4.45-2.91,8.42-6.08,13.92-6.85,3.35-.47,5.59-3.18,7.76-5.63C2430.39,1815.94,2429.56,1813,2425.93,1812.71Z" transform="translate(0.31 1)"/><path class="cls-2" d="M1261.89,559.48a13.33,13.33,0,0,0-10.7.83,117.47,117.47,0,0,0-11.78,6.41,39.54,39.54,0,0,1-15.86,6c-11.26,1.66-22.46,4.12-33.77,4.81-9.46.58-17.37,4-24.78,9.17-4.32,3-8.32,6.53-12.36,9.94-2.57,2.17-5.27,3.94-8.77,3.59-6.15-.62-9.72,2.88-13,7.44-8.53,11.93-17,23.88-24.59,36.46-2.09,3.47-4.08,7.22-7,10-4.85,4.64-7.77,10.34-10.88,16.08-6,11.06-9.69,23.32-17.34,33.54a8.39,8.39,0,0,0-1.65,4.51c-.17,8.39-3.84,15.79-6.69,23.35-6.1,16.21-8.13,33.13-9.67,52.16,1.07,12.62,1.71,27.27,3.76,41.72,1.36,9.61,4.54,19,7.31,28.35a21.91,21.91,0,0,0,11.5,13.63c2.47,1.25,5.52.11,5.87-2.26a32.86,32.86,0,0,0,.28-4.86c0-22.4.07-44.8,0-67.19a49.9,49.9,0,0,1,2.8-16.74c4-11.53,7.91-23.11,10.92-34.92,1.85-7.23,4.13-14,8.56-20,4.14-5.66,7.19-11.8,7.47-19.05.16-4.21,2.19-7.86,4.37-11.28,12.45-19.48,22.66-40.67,42-54.89a13.38,13.38,0,0,0,1.73-1.72c10.94-11.59,23.3-21.55,35.79-31.39,9-7.07,18-13.72,29.54-16.13a47.63,47.63,0,0,0,12.47-4.91c4.63-2.47,9.39-2.67,14.22-1.83,6.36,1.11,12.67,2.56,18.94,4.13,3.08.78,5.65.51,7.71-2s2-5.32.59-8A30.67,30.67,0,0,0,1261.89,559.48Z" transform="translate(0.31 1)"/><path class="cls-2" d="M2648.74,1930.69c-26.21.46-52-3.51-77.57-8.27-20-3.72-39.9-8.06-59.73-12.63a160.34,160.34,0,0,0-46.09-3.71c-6.49.39-13,1.15-19.42,2.1-19.33,2.85-38.69,5.46-57.59,10.68q-24.12,6.67-48.34,13c-5.11,1.33-10.36,2.16-15.58,3-8,1.3-16.16,2.09-24.12,3.68-11.21,2.25-22.4,4.07-33.87,4.3-4.41.08-8.85,1.2-13.18,2.25-2.6.63-3.85,3.05-4,5.59-.67,9,5.58,15.6,14.69,15.58,2.18,0,3.49-.73,3.81-3.49.91-7.92,2.93-9.82,9.87-11.31a25.3,25.3,0,0,1,12.08.26c5.9,1.58,11.82,3.11,17.63,5,18.27,5.84,37.25,8.7,55.78,13.44,3.49.9,7.27.69,10.92,1,18.25,1.47,36.49,3.07,54.75,4.35,8.52.59,17.08.66,25.62.75,3.28,0,6.54-.7,8.82-3.4.78-.92,1.09-2.42-.26-3.14a15.74,15.74,0,0,0-5.57-2.11c-13-1.15-25.95-2.26-38.94-3-18.28-1.12-36.58-1.8-54.85-3-5.65-.37-11.24-1.77-16.84-2.81-1.19-.22-2.2-1-2.52-3.12,5-2.75,10.31-5.62,15.57-8.54,6.79-3.78,13.53-4.38,20.94-1.25a88.19,88.19,0,0,0,23.58,6c19.44,2.43,39,2.93,58.51,3.14a80.25,80.25,0,0,1,18.13,2.29c3.55.86,7.18,1.39,10.76,2.15,12.46,2.64,25.12,2.06,37.73,2.21,9.39.11,18.68.47,27.65,3.94,3.34,1.29,7.13,1.54,10.76,1.94,2.71.29,4.25-2.43,3.29-5s-2.49-4.31-5-4.87a52,52,0,0,0-8.45-1.08c-15.43-.88-30.88-1.57-46.32-2.54-8.49-.54-17-.77-24.92-5-2.71-1.43-6.3-1.29-9.51-1.7-11.7-1.47-23.42-2.78-35.1-4.38-1.88-.26-4.57.32-5.81-2.47,5.82-1.61,11.71.15,16.78-2,1-2.56-1-3.07-1.9-4.18-1.25-1.48-1.52-3.76-4-4.23-1-.19-3.36.46-2.8-2.13,5-.77,10.56-.2,14.39-2.54,7.45-4.53,15.41-4.6,23.43-5.48,3.62-.4,8,.15,10.68-1.72,6.4-4.54,12.35-2.62,18.59-.64,1.09.35,2.42.89,1.05,2.31-.52.54-1.43.71-3.26,1.55,10.16,1.61,19.06,2.67,27.8,4.53,9.08,1.93,17.29,7,26.87,7.47,1.87.09,3.9,1.36,5.46,2.58,4.38,3.45,9.62,4.53,14.81,5.22,10.88,1.46,21.83,2.51,32.77,3.45a70.74,70.74,0,0,0,23.05-1.79c6.71-1.65,13.48-3.1,20.1-5,3.57-1,8.52.88,10.37-4.33-3.11-2.55-7-1.6-10.49-2.13A64.69,64.69,0,0,0,2648.74,1930.69Z" transform="translate(0.31 1)"/><path class="cls-2" d="M1051,480.6c-3.55-2.45-7.55-2.82-11.64-2.9-4.92-.11-9.11,1.68-10.74,6.43-2.88,8.36-9.5,14.09-14.06,21.24-3.49,5.46-9.69,7.09-14.91,10.06-1.48.85-3.22,0-4.49-1.1-1.56-1.29-2.87-2.89-4.42-4.18-1.29-1.07-3-1.73-4.51-.8-6.19,3.82-13.45,6-18.36,11.75a29.45,29.45,0,0,1-7.38,6.29,30.86,30.86,0,0,0-9.88,9c-2.86,4.21-6.82,6.8-11.2,9.1A60.86,60.86,0,0,0,914.61,570a65.11,65.11,0,0,1-12.68,16.12,32.76,32.76,0,0,0-10.81,21.17c-.87,7.58-1,15.72-4.84,22.54-5.4,9.7-6.34,20.93-11.64,30.64-2.3,4.22-3.22,9.17-4.95,13.73a30.55,30.55,0,0,0-1.21,19.14c.72,2.75,1.16,5.57,1.79,8.34,1.06,4.62,3.16,5.7,8,4.76,2.16-.41,3.5-1.94,5.29-2.76,4.82-2.21,9.8-4,16.31-3a11.72,11.72,0,0,0,2.6.28c3.82-.18,7.22-.92,8.36-5.47,1.42-5.66,5-10,8.48-14.64,6.36-8.5,11.56-17.65,13.78-28.29A117.18,117.18,0,0,1,938,635c5.24-13.82,7.49-28.23,9.2-42.76,1.56-13.2,8.12-23.55,17.94-32,7.4-6.37,14.65-12.71,20.26-20.94,3.37-4.95,8.28-8.92,12.85-12.93s9.57-7.48,14.36-11.22c12.45-9.72,24.35-20.2,38.38-27.76C1054.09,485.71,1053.87,482.56,1051,480.6Z" transform="translate(0.31 1)"/><path class="cls-2" d="M2663.8,1180.15c-6-.38-10.94,2.68-16.06,5.11-2,.93-4.07,1.46-5.27-.8-1.08-2,0-4,1.49-5.46s3.21-2.5,4.69-3.87a22.37,22.37,0,0,0,4.06-4.43,3.77,3.77,0,0,0-.3-3.36c-.57-.85-2.14-1.75-3-1.53a25.32,25.32,0,0,0-6.69,2.73c-5.58,3.34-10.75,7.47-16.59,10.23-7.73,3.66-13.74,8.63-17.07,16.54a11.89,11.89,0,0,1-7.84,7.08c-1.94.61-3.77,1.55-5.69,2.18-10.68,3.53-20.47,8.12-25.25,19.4a5,5,0,0,1-4.68,3.39c-8-.24-13.59,4.49-19.19,9.33-5.82,5-12.36,9.28-16.44,16.15-1.4,2.36-3.87,2.79-6.4,1.47a15.17,15.17,0,0,1-3.09-1.94c-6.1-5.39-7.93-2.46-10.66,3.22-1,2.19-2.13,4.35-.71,6.91,1.23,2.24-.29,3.72-1.84,5.15-7.77,7.15-15.59,14.24-21.77,22.94-3,4.2-7.44,6.09-12.63,6.34-16.42.8-27.68,10.82-38,22-4.15,4.5-6.69,10.25-5.81,16.8a2.77,2.77,0,0,0,3.35,2.61,15.29,15.29,0,0,0,3.5-1c9.18-3.52,17.59-3,24.29,5,3.48,4.19,8,3.16,12.39,3,1.82-.07,2.86-1.37,3.49-3a35.27,35.27,0,0,1,1.75-4.5,3.12,3.12,0,0,1,4.24-1.22c1.09.48,2.44,1.06,3,2,3.27,5.61,7.8,4.83,12.56,2.61a22.68,22.68,0,0,0,5.06-3.35c.83-.7,1.74-2.11,1.55-3s-1.54-1.83-2.57-2.34c-3.15-1.55-6.36-.34-9.57,0-5.5.63-10.66-.68-14.56-4.64-7.08-7.17-4.28-16,.95-21.88,3.63-4,7.9-5.63,13.08-3.22,4,1.88,8.09,3.77,12,5.87s4.79,7.08,7.57,10.23c3.28-2,4.76-5.44,8.85-4.66,5.42,1,9.77-1.86,12.22-6.13,4-6.91,10.2-10,17.2-9.54,12.47.91,19-7,25.89-14.93a3.7,3.7,0,0,0,.41-4.47c-1.2-2.33-.67-3.66,2.09-4.28a30.4,30.4,0,0,0,14.08-6.84,2.47,2.47,0,0,0,.76-3.23,4.48,4.48,0,0,0-2.75-1.92c-5.54-.51-11.4,1.86-16.55-2.09-3.72-2.86-4.41,1.2-7.8,4.42,1-8.15,1.75-14.18,2.57-20.19.75-5.62,4.16-8.71,9.65-9.35,3.2-.37,6.5,0,9.69-.37,5.33-.67,8.57,1.54,10.16,6.5.37,1.16.57,2.38,1,3.52a6.11,6.11,0,0,0,6.59,4.34c8.44-.64,16-2.74,20-11.44a44.86,44.86,0,0,1,4.58-7.17c1.5-2.1,2.59-4.29,1.22-6.74-1.72-3.08-.75-5.45,1.5-7.62,6.44-6.19,11.74-13.46,18.77-19.13,5-4.07,9.54-8.83,14.22-13.35a2.49,2.49,0,0,0,.45-3.27A3.12,3.12,0,0,0,2663.8,1180.15Zm-110.69,108.92c-5.54,2.42-10.93,5.39-20.08,5.48-5.4.12-9.34-4.4-10.69-12.69-1.07-6.58,3.76-12.5,10.7-14.06a4.89,4.89,0,0,1,1.19-.22c4.81.09,10.58-2.13,14.19.94,4.58,3.9,5.12,10.67,6.63,16.48A3.43,3.43,0,0,1,2553.11,1289.07Z" transform="translate(0.31 1)"/><path class="cls-2" d="M2617.91,1489.1c-8.06-4.79-15.92-9.81-22.69-16.42-2-1.93-4.69-3.19-7.22-4.43-2.73-1.32-5.69-1.49-7.85,1-3.14,3.68-6.53,2.42-9.93.81-2.57-1.22-5-2.82-7.53-4-3.75-1.8-7.42-.06-8.62,3.83a16,16,0,0,0,0,8.45,34.31,34.31,0,0,0,5.68,12.07c1.87,2.63,4.19,5.07,4.61,8.46.08.64-.51,1.42-.94,2a1.28,1.28,0,0,1-1.17.06c-2.1-1.18-4.21-2.36-6.24-3.66-3.07-2-5.92-4.36-9.16-6-5.55-2.79-9.93.11-9.62,6.23.18,3.63.91,7.23,1.23,10.85a2.28,2.28,0,0,1-1.21,1.78,2.23,2.23,0,0,1-2.05-.59c-1.86-3.6-3.51-7.16-7.48-9.23-6.13-3.2-12-6.86-18-10.26-3.6-2-7.38-4-11.35-1.06-3.71,2.78-4,6.84-3.3,11.06.06.4.19.79.24,1.2.82,6.21.25,6.72-6,6.2a37.53,37.53,0,0,1-11.76-3c-2.62-1.13-5.18-2.45-7.88-3.32-7.28-2.36-12.46,1.79-11.18,9.27.68,3.94,2.63,7.65,3.78,11.53a4.19,4.19,0,0,1-.58,3.3c-1.17,1.49-2.93,1.12-4.37.23-4-2.45-5.91-6.64-8.61-10.17-1.82-2.37-4.1-4.63-7.06-4.07-5.68,1.08-9.84-.74-14.46-4.06-6.07-4.37-11.71-2.33-15.78,4.85-1.54,2.71-3.58,4.08-6.14,5.47-3.17,1.72-3.71,4-2.16,7.09a68.66,68.66,0,0,0,9.66,14.05c5,5.83,10.76,11.15,13.69,18.57.82,2.06,2.76,2.84,6.09,2.56,5.42-2.51,12.91-.39,19.16-3.64,7-3.64,14.55-5.11,22.13-6.58,21.65-4.2,42.25-11.88,63-19.09,6.51-2.27,12.51-6.37,19.14-7.88,15.56-3.55,29.65-11.13,44.94-15.3,5.82-1.58,11.57-3.46,17.27-5.43a20.39,20.39,0,0,0,5.17-3.08,3.28,3.28,0,0,0,.39-5.23A39.29,39.29,0,0,0,2617.91,1489.1Z" transform="translate(0.31 1)"/><path class="cls-2" d="M792.4,1365.29a40.73,40.73,0,0,0-5.45-2.62c-13.29-5.05-26.91-9.18-40-14.8-15-6.45-29.19-14.14-41.5-24.95-3.95-3.47-7-8-11-11.33-16.91-13.95-33.49-28.42-53.81-37.5a16.76,16.76,0,0,1-4.05-2.68A96.89,96.89,0,0,0,616.19,1258a27.25,27.25,0,0,1-5.9-4.24,289.8,289.8,0,0,1-33.78-36.85,133.9,133.9,0,0,1-19.93-36.11c-.84-2.28-1.57-4.74-3-6.64-3.3-4.45-4.57-9.35-4.91-14.79-.25-3.85.69-9.1-3.65-10.66-2.91-1-4.63,4-7.57,5.32-.7.32-1.44.57-3.58,1.4.21-3.05.49-5,.47-7-.09-9.22-1.69-11.42-10.17-14.22-3.8-1.25-6.38.64-6.53,4.63a19.72,19.72,0,0,0,1.61,8.31c1.55,3.8,3.33,7.53,6.3,10.36,3.46,3.3,3.77,7,2.4,11.18-1.14,3.46-2.48,6.86-3.83,10.25-2.29,5.74-2.31,11,2.38,15.8,2,2,4.23,3.93,4.45,7.06.73,10,6.9,17.19,13.14,24.15,7.57,8.45,15.89,16.18,23.95,24.15,10.43,10.31,21.72,19.53,32.64,29.22,6.45,5.72,13.26,10.7,21.82,12.94,2.26.59,4.21,2.39,6.3,3.63,3.84,2.3,7.51,5,11.55,6.8,9.61,4.42,17.58,11.85,27.87,15a4.82,4.82,0,0,1,2,1.34c4.57,5.06,10.89,7.17,16.92,9.4,10.75,4,20.73,9.39,30.57,15.1,7.71,4.47,16.2,7.25,23.59,12.57,10,7.17,22,10.46,33.31,15a18.53,18.53,0,0,0,17.58-1.54C793.55,1368.58,793.73,1366,792.4,1365.29Z" transform="translate(0.31 1)"/><path class="cls-2" d="M1708,1708c-3.32-2.35-6.81-4.53-9.16-8-3.26-4.82-7.82-8.23-12.47-11.57a163.56,163.56,0,0,1-27.15-24.46,371,371,0,0,0-51.41-48.65c-3.93-3-7.87-5.73-12.89-6.57-8-1.34-14.72,3.19-16.14,11.13a28.08,28.08,0,0,0,.55,12.13,54.82,54.82,0,0,0,5.9,14.68c4.62,7.67,9,15.49,13.34,23.33,1.29,2.33,3.65,4.53,2.11,7.73-6.32-3.22-16-10.81-20.44-16.51-8.22-10.64-16.21-21.45-24.34-32.14-7.15-9.4-12.42-20.11-20.37-29-10.06-11.22-19.75-22.78-30-33.8a242.25,242.25,0,0,0-18.79-17.43,30.25,30.25,0,0,0-15.18-7.45c-6.75-1.06-11.14,3.07-10.31,9.88a22.42,22.42,0,0,0,2.07,7c5.32,11,10.64,22,17.6,32.12,1.79,2.6,3.21,5.71,6.56,6.78a1.49,1.49,0,0,0,.76-2.06c-3-9.86-1.77-11.28,8.22-9.83a14.51,14.51,0,0,1,6.71,2.59c3.61,2.63,7.59,4.75,11.16,7.42,13.05,9.74,26.12,19.46,35.55,33.11,4.4,6.37,9.2,12.46,13.63,18.8,14,20,28.66,39.42,47.75,55.26,8.46,7,17.93,12.62,26,20a2.14,2.14,0,0,0,3.2-.28,2.69,2.69,0,0,0,.57-2.21c-1.73-4.11-3.23-8.39-5.54-12.17-8-13.22-16.33-26.29-24.63-39.36-2.3-3.63-4.45-7-.12-10.69a4.11,4.11,0,0,0,1-4.55c-2-5.34,1.17-10.21.59-16.92,8.44,3.15,13.71,7.61,18.68,12.36,14.43,13.81,27.36,29,40.39,44.12,4,4.61,8.15,9.07,12.37,13.47,1.37,1.43,3.52,3.27,5.3,2,4.68-3.41,7.59-.27,10.63,2.29a189.9,189.9,0,0,0,25.7,18.61c1.12.65,2.55,2.37,4.45-.3C1723.1,1721.44,1716.38,1713.89,1708,1708Z" transform="translate(0.31 1)"/><path class="cls-2" d="M2935,1415a21,21,0,0,0-4.83.33c-17.37,4.24-34.84,8.38-51,16.32-17.13,8.43-34,17.43-51,26.21-1.8.93-3.56,2-5.28,3s-3.46,2.35-3.41,4.66,1.82,3.53,3.73,4.31c3,1.21,6,2.23,10.72,4-2.93,2.27-4.05,3.5-5.44,4.16-11,5.26-22,10.53-33.1,15.53-4.81,2.17-10,3.21-15.24,4.19-7.57,1.43-15.07,3.3-22.53,5.26-3.1.82-6.2,2.07-8.24,4.87-1.36,1.87-1.47,3.84.21,5.47a12.85,12.85,0,0,0,4,2.7c11.31,4.63,22.66,9,35.29,8.24,6.08-.38,12.19-.22,18.29-.2,9.43,0,17.36-3.18,23.79-10.23,2.7-3,5.38-5.95,9.4-7.55,6.82-2.72,13.4-6,17.08-13,.69-1.33,2.29-2.28,3.62-3.18,4.43-3,8.33-6.43,11-11.17a18.17,18.17,0,0,1,4-4.51c15.08-12.91,30.71-25.2,44.19-39.89,1.35-1.47,3.15-2.5,4.67-3.83,4.23-3.73,8.71-7.24,11.76-12.11A2.31,2.31,0,0,0,2935,1415Z" transform="translate(0.31 1)"/><path class="cls-2" d="M2551.89,1735.18a44.86,44.86,0,0,0-15.47-3.08c-24.81-.75-49.63-1.53-74-6.72-1.19-.25-2.43-.26-3.64-.4-19-2.31-38-4.44-56.95-7-21.77-2.92-43.09-8.79-65.14-9.92a5,5,0,0,1-1.2-.21c-13.33-3.95-27.13-5.37-40.78-7.63-8.4-1.39-17-2.19-25.17-4.34-20.07-5.27-40-11-60.73-13.31-6.07-.69-12-2.17-16.3-7.34a9.34,9.34,0,0,0-5-3.21c-7.59-1.34-15.24-2.28-22.88-3.25-.5-.06-1.46.79-1.61,1.37a2.59,2.59,0,0,0,.62,2.16c.86.82,2.1,1.23,3.05,2,8.16,6.4,18.37,8.61,27.31,13.42a210.33,210.33,0,0,0,40.7,16.48c28.91,8.48,58.49,14.2,88.48,21.61-.32-3.07-2.92-6.2,1-5.45,11.18,2.13,22.19,5.15,33.32,7.64,17.09,3.83,34.35,7.4,51.77,8.45,12.31.74,24.15,2.9,36.06,5.45,1.59.34,3.14.89,4.74,1.15.7.12,2-.1,2.11-.38.43-1.88-1.52-5.24,3.11-4.09,2.76.68,5.62.94,8.43,1.42,11.23,1.92,22.43,4.07,33.7,5.73,21.1,3.11,37.68.93,54.48-6.82A2.44,2.44,0,0,0,2553,1737,2.39,2.39,0,0,0,2551.89,1735.18Z" transform="translate(0.31 1)"/><path class="cls-2" d="M904.81,1099.79c0,.12,0,.22,0,.34C904.79,1100,904.8,1099.86,904.81,1099.79Z" transform="translate(0.31 1)"/><path class="cls-2" d="M975.29,1170.13c-5.34-3.27-9.48-7.57-13.39-12.28-8.6-10.36-14.62-22.25-20.61-34.18-5.09-10.16-8.36-21.19-14.7-30.73a83.65,83.65,0,0,1-8.86-17.34,44,44,0,0,0-7.38-12.45c-6.88-8.51-12.34-18.13-20.07-26a12.13,12.13,0,0,1-1.82-3.16,294.27,294.27,0,0,1-23.07-60.24c-4.12-15.72-9.17-31.2-14-46.73-1.07-3.47-2.47-6.93-5.21-9.53a2.72,2.72,0,0,0-2.14-.82,5.36,5.36,0,0,0-2.76,2,6.76,6.76,0,0,0-.25,5.92c1.74,4,1,7.91-.18,11.88-.77,2.73-1.26,5.54-1.94,8.3a36,36,0,0,0,2.42,25c1.59,3.29,3.24,6.56,4.91,9.82,1.31,2.55,2.72,5.18,2.08,8.1-1,4.73.92,8.78,2.37,13,2.91,8.44,6.56,16.63,7.71,25.63.81,6.29,4.27,11.47,8.82,15.68,8,7.4,14.86,16.19,25.91,19.74,5.62,1.81,8,6.5,8.35,12.31.25,4,.35,8.16,2.24,11.91s2,7.68,1,13.87c0,.07,0,.17,0,.34,0-.12,0-.22,0-.34.05-.36-.11.63-.24,1.65-.52,4.39.38,8,4.84,10.13s6.56,6,7.52,10.55a44.27,44.27,0,0,0,12.74,23.07c4,3.93,6.86,8.94,12.09,11.7a9.17,9.17,0,0,1,3.27,3.54c3.61,6.3,9.41,11.23,11.36,18.62a9.55,9.55,0,0,0,5.31,6.4c2.94,1.31,5.9,2.62,8.92,3.72a6.26,6.26,0,0,0,8-3.68c.32-.74.47-1.56.74-2.32C982,1175.28,982,1174.23,975.29,1170.13Z" transform="translate(0.31 1)"/><path class="cls-2" d="M1172.23,1159.89a48.82,48.82,0,0,1-7.1-12.73c-5.4-15.85-12.68-30.87-20.44-45.66-16.75-31.92-28.29-65.68-35.85-100.86-1.56-7.23-3.73-14.17-7.88-20.36-1.89-2.81-2.93-5.66-2.28-9.16,1-5.43-.43-10.72-2.81-15.4-3.58-7-5.17-14.43-6.07-22.07a34.72,34.72,0,0,0-3.77-12.77c-2.09-3.82-6.77-4.82-10.62-2.7s-6,5.42-8,9a10.38,10.38,0,0,0-.45,9.28c0,11.09,3.9,20.77,9.8,29.76,2.1,3.21,2.53,6.74,3.13,10.38,1.06,6.41,2,12.93,3.95,19.09,4.08,12.75,9,25.25,13.24,38,3.36,10,7.07,20,9.15,30.33a149.34,149.34,0,0,0,7.15,23.22c3.16,8.37,6.79,16.57,10,24.92a21.36,21.36,0,0,0,4.42,7.21c9.24,9.68,18.21,19.5,25.11,31.16,4.86,8.21,13.51,12.78,20.78,18.61a2.28,2.28,0,0,0,2.12.21,2.24,2.24,0,0,0,.64-2.07A54.59,54.59,0,0,0,1172.23,1159.89Z" transform="translate(0.31 1)"/><path class="cls-2" d="M400.84,962c-.53-3.58-2-4.83-5.82-4.62-4,.22-8.08.95-12.13,1.24a10.74,10.74,0,0,1-11.15-7.49,7.5,7.5,0,0,1,1.89-7.88c2-2.06,4.41-1.68,6.82-1a18.9,18.9,0,0,1,2.24.93c5.88,2.48,7.9,2.22,11.59-1.52,3.32-3.37,3.89-6.74,1.88-11.11s-5.21-6.62-9.47-6.22a92.76,92.76,0,0,0-9.58,1.79c-2.79.57-4.91-.44-6-2.93-5.48-12.35-16.85-18.35-27.3-25.25-7-4.63-14.11-4.25-21.94-.7-10.69,4.85-18,13.72-26.78,20.71-4.06,3.22-2.47,8.65,2.62,10.59a25.42,25.42,0,0,0,7.09,1.46,52.58,52.58,0,0,0,16.93-1.5c3.94-1,8.28-2.57,12-.9,7.73,3.5,16.21,5.28,23.38,10,3.64,2.41,5.86,5.12,4.54,10.12-1,3.74,2.35,8.17-.57,11.75-4.17,5.1-4.5,12.14-9.28,16.92a8.86,8.86,0,0,0-1.27,11.33c4.51,7.09,6.18,17.17,17.52,17.83,1.65.1,3.25,2.24,4.72,3.59,5.41,5,12.26,5.78,19.06,6.64,2.21.28,4.72-2.66,4.45-4.88-.14-1.17-.81-2.27-1-3.44-1.64-8.5-2.46-16.89,3.54-24.3,2.74-3.38,3.33-7.32,3-11.55C401.46,968.4,401.3,965.17,400.84,962Z" transform="translate(0.31 1)"/><path class="cls-2" d="M948.54,1221.34c-3.29-3-6.61-5.89-10.22-8.55-13.45-9.93-25.93-20.88-33.86-36.1a58.73,58.73,0,0,0-6.36-8.93,112.27,112.27,0,0,1-10-15.26c-5.73-10.26-12.51-19.93-16.57-31.09a13.38,13.38,0,0,0-1.87-3.13,53.42,53.42,0,0,1-8.39-17.46c-.92-3.49-2.75-6.76-4.38-10-.49-1-1.71-1.57-2.22-2-1.6-.4-3.81,1.64-3.53,3.11,1.68,8.66-2.57,14.8-8.28,20.41a24.19,24.19,0,0,0-2.35,2.8c-1.56,2.05-2.55,4.28-.93,6.71,5.21,7.81,5.66,16.93,6.52,25.75a21.06,21.06,0,0,0,7.51,14.61c4.34,3.86,10.72,6.3,10.44,13.77,0,.61.84,1.42,1.49,1.85,9,6.1,14.61,15.44,20.2,24.13a46.61,46.61,0,0,0,19.51,17.54,175.78,175.78,0,0,1,23.12,13.22c13.11,8.94,11.13,7,21.18-4C951.85,1226.18,951.44,1224,948.54,1221.34Z" transform="translate(0.31 1)"/><path class="cls-2" d="M498.64,1714.32a24.65,24.65,0,0,0-4.14,5.9c-5.39,9.61-8.31,20.33-13.16,30.13-13.5,27.27-34.27,44.8-65.81,47.12-3.16.23-6.9-.42-9.12,2.37-2.65,3.35.46,6,2,8.68a1.86,1.86,0,0,1,.32,1.14c-1.26,7.19,4,9.09,9.05,10.7,10.9,3.47,22.15,5.38,33.58,4.68,13.42-.83,25.3-5.54,34.36-16a62.4,62.4,0,0,1,6-6c4.7-4.12,7.75-9.31,10.23-15,5.66-12.89,6.72-26.66,8.21-40.51-1-10-2-20.11-3.15-30.18C506.62,1713.48,501.45,1711.63,498.64,1714.32Z" transform="translate(0.31 1)"/><path class="cls-2" d="M1136.75,1171.31a56.31,56.31,0,0,1-15.54-20.06,127.22,127.22,0,0,0-10.71-19.15c-8.61-12.45-15.08-26-21.83-39.47a37.36,37.36,0,0,1-4.15-13.88,45.91,45.91,0,0,0-8.13-22.72c-2.54-3.68-4.72-7.61-7.15-11.36-1.75-2.72-3.2-5.94-6.45-7.07s-4.86,2.42-7.45,3.33a14.7,14.7,0,0,1-3.53.74,4.74,4.74,0,0,1-4.3-1.8c-2.84-3.62-2.86-8.95.58-12,2.22-2,4.37-3.58,4.52-6.77.14-2.9-.06-5.86-1.8-8.2-3.39-4.55-7-9-10.71-13.24a10.4,10.4,0,0,0-7.66-3.26c-4.33-.18-6.91,3.09-5.16,7.08a190.37,190.37,0,0,1,8,20.35c2.25,7.29,2.75,15.3,8.12,21.45a4.14,4.14,0,0,1,.64,2.31c.42,6,3.63,10.67,7.23,15.14a28.37,28.37,0,0,1,5.39,10.83c4.55,17.41,12.18,33.65,19.44,50,5.29,11.92,11.54,23.42,20,33.4,10.67,12.55,22.42,23.71,41.23,24.8,1.46.32,3.83.93,6.23,1.31a2.28,2.28,0,0,0,1.92-.94,2.82,2.82,0,0,0-.18-2.28C1143.27,1176.25,1139.86,1173.89,1136.75,1171.31Z" transform="translate(0.31 1)"/><path class="cls-2" d="M677.91,1408.75c-9.18.26-18.52,1-26.39-5.39-.33-.27-1.41.26-2.06.58a1.17,1.17,0,0,0-.41,1,26.91,26.91,0,0,0,1.8,5.75c4.39,8.19,2,15.81-2,23.16-3.22,5.9-8.43,7.15-14.41,3.76-3.17-1.79-6.05-4.14-9.32-5.69-4.6-2.17-6.41-6-7.3-10.53-.94-4.79-.33-9.64.57-16.77-10.93,10.25-10.93,10.24-24.44,9.72-2-.08-4.06,0-6.09.1-4.13.17-8,1-11.38,3.69A49.06,49.06,0,0,0,560.31,1442c-1.2,3.75-.16,5.87,3.48,8.07a27.21,27.21,0,0,0,4.32,2.24c12.1,4.7,24.24,9.27,36.32,14a18.52,18.52,0,0,0,16.41-1.15,81.74,81.74,0,0,0,8.52-4.7c10-7,20.81-12.65,31.33-18.8a87.94,87.94,0,0,0,20.57-17c3.49-3.85,3.6-7.82,2.07-12.39C682.41,1409.54,680.79,1408.67,677.91,1408.75Z" transform="translate(0.31 1)"/><path class="cls-2" d="M2639.37,1663.72a18.12,18.12,0,0,0-2.41-.33c-21.09-.63-42.17-1.38-63.26-1.81-17.48-.35-34.95-.41-52.44,0-19.1.49-38.23-.32-57.34-.37-12.25,0-24.35-.92-36.29-3.87-3.1-.77-6.42-.7-9.64-.81-1.5,0-2.59,2.29-1.94,3.71,2.09,4.63,5.75,7.88,9.86,10.54,8.32,5.4,17.43,9.22,27.41,9.12,10.36-.11,20.11,2.39,30,4.8,2.76.68,5.47,1.58,8.25,2.17,2.51.53,3.79-.45,3.35-3.24-.33-2.06,1.09-3,2.82-3a118.67,118.67,0,0,1,14.62.39c22.42,2.69,44.67-.26,66.94-2,7.73-.6,15.4-1,23.12.48,5.27,0,10.56-.26,15.81.06,10.12.6,16.37-5.81,22.76-12C2642,1666.52,2640.91,1664,2639.37,1663.72Z" transform="translate(0.31 1)"/><path class="cls-2" d="M882.31,527.21c-1.84-2.11-4.71-2.32-6.23,0-4.31,6.66-10.76,10.86-16.83,15.54-1.6,1.22-3.82,2.2-4.6,3.84-3.33,7.08-9.86,11.76-13.58,18.35A48.59,48.59,0,0,1,829.4,578.7,35.39,35.39,0,0,0,820,591.24a93.34,93.34,0,0,0-6.69,18.26c-3.48,14.7-4.43,29.69-5.53,45.49,0,4.47.18,9.75-.06,15-.19,3.92,1.58,7.08,3.27,10.28a5,5,0,0,0,2.69,2.22c6.44,2.11,12.16-.6,14.58-6.75,5.41-13.75,7-28.31,9-42.79.39-2.81.11-5.79.93-8.45,2.78-8.92,5.16-17.92,7.25-27,1-4.6,2.72-9.39,7.76-11.8a6.32,6.32,0,0,0,3.06-3.55c1.7-6.28,5.79-10.42,10.9-14.1a28,28,0,0,0,7.48-7.91,65.76,65.76,0,0,1,13-15.88c1.9-1.65,2-3.43,1.27-5.42A35.69,35.69,0,0,0,882.31,527.21Z" transform="translate(0.31 1)"/><path class="cls-2" d="M2699,1611.45a24,24,0,0,0-6-1c-18.71-.66-37.31-3.14-56.09-2.79-15.87.29-31.81.46-47.61-.8-21.07-1.68-42-4.76-63-7.33-3.22-.39-6.37-1.36-9.59-1.81-1.82-.26-4.41-1.54-5.25,1-.71,2.18,1.65,3.44,3.12,4.72,2.76,2.4,5.69,4.61,8.44,7a2.45,2.45,0,0,1,.52,2.13,3,3,0,0,1-1.66,1.46,7.05,7.05,0,0,1-2.4.36,418.89,418.89,0,0,1-57.34-.94c-8.1-.69-16.23-1-24.35-1.38a2.67,2.67,0,0,0-2.89,1.67,2.85,2.85,0,0,0,1.07,3.22,27.23,27.23,0,0,0,16.62,6.75,112.36,112.36,0,0,1,13.35,1.31c8.91,1.58,17.87,1,26.81,1.1,1.13,0,3.22-.43,3.27-.84.42-3.7,3.1-3.2,5.45-3.17,12.62.18,25.23.44,37.85.62a77.1,77.1,0,0,0,9.74-.2c13.85-1.62,27.6-.83,41.35,1.13,6.84,1,13.76,1.52,20.66,2,2.81.21,6.26.82,8.37-.47,5.5-3.35,11-2,16.62-1.53,2,.17,4.8.77,5.78-.9,3.3-5.65,8.42-3.69,13.07-3.77,4.47-.07,8.95,0,13.42,0,0,.11,0,.22,0,.34,5.27.47,10.53,1,15.8,1.42s10.58,0,15.25-3.12c1.57-1,4.41-1.33,3.55-4C2702.52,1612.67,2700.42,1611.9,2699,1611.45Z" transform="translate(0.31 1)"/><path class="cls-2" d="M1666.41,1648.85l.17.1,0-.26Z" transform="translate(0.31 1)"/><path class="cls-2" d="M1924.92,1818.45c-2.47-1.4-5.07-2.57-7.62-3.82-18.24-9-36.83-17.24-54.12-28.05-4.82-3-9.77-5.86-14.8-8.52-16.88-8.93-33.25-18.91-51.31-25.43-8.51-3.07-16.12-7.6-23.54-12.68-13.13-9-25-19.51-37.37-29.41a118.16,118.16,0,0,1-22.57-23.85c-3.8-5.33-7.86-10.47-13-14.44-10.91-8.36-21.87-16.67-34-23.3.52,6.64,5.19,10.71,9.66,14.67,11.64,10.29,21.55,22.11,31.17,34.23,11.92,15,25.4,28.55,39.56,41.42,3.6,3.28,7.42,6.34,11.31,9.28,1.19.9,3.48,2,4.32,1.44,4.64-2.89,7.67.06,10.88,2.46,26.57,19.92,57.58,31.75,86.52,47.36a32.38,32.38,0,0,0,3.39,1.36c15.44,6.26,30.84,12.6,46.32,18.75a101.63,101.63,0,0,0,12.8,3.91c1.77.45,4.32,1.19,5-1.64C1927.88,1820.46,1926.31,1819.23,1924.92,1818.45Z" transform="translate(0.31 1)"/><path class="cls-2" d="M306.42,1189.53c-6.68-11-10.24-22.94-11.94-35.59-.38-2.76-1.07-5.94-2.76-8-5.46-6.58-6.31-14.83-8.81-22.43a41.33,41.33,0,0,1-1.54-20.53,30.08,30.08,0,0,0-1.95-17.83,10.28,10.28,0,0,1,.18-9.3c2.63-5.22,2.06-7.07-1.54-10.57-.48-.47-19.6-10-20.22-10-.4,0-.81,0-2.62,0-2.61.1-5.59,2-7.55,5.42A18.07,18.07,0,0,0,246,1074.8c4.8,18.88,9.3,37.84,13.89,56.78,1.06,4.35,2.84,8.72,2.85,13.09,0,9.31,4.21,17.28,6.87,25.77,1.43,4.57,4,7.88,8.79,9.28,4,1.16,7.06,3.75,10.32,6.27,5.74,4.44,12,8.16,18.1,12.15a1.22,1.22,0,0,0,1.16-.05c.48-.51,1.24-1.32,1.1-1.76A30,30,0,0,0,306.42,1189.53Z" transform="translate(0.31 1)"/><path class="cls-2" d="M2590.67,1706.12a22.66,22.66,0,0,0-4.7-.95c-26.1-.66-51.58-6.28-77.33-9.72-6.84-.91-13.52-3-20.5-2.74-10.73.36-20.94-2.18-31.17-5-10.95-3-21.91-6.31-33.08-8.33q-20.4-3.69-40.64-8.06c-12.7-2.77-25.53-5.08-38.62-5.14a8.27,8.27,0,0,0-1.22,0c-4.52.69-9.73-2.17-13.47,2.59,1,5.21,5.45,7.88,8.66,11.39,1.56,1.7,4.08,2.55,6.22,3.68,9.48,5,19.85,7.16,30.27,8.93,32.12,5.43,64.66,6.66,97,9.36,8.55.71,17,1.55,25.25,3.76,4.31,1.16,8.56,2.58,13.16,1.85,7.32-1.17,14.58-.12,21.85.7,10.1,1.15,20.2,2.3,30.31,3.23a75.48,75.48,0,0,0,27.72-2.68c.46-.13.68-1.3.86-2C2591.34,1706.73,2590.94,1706.19,2590.67,1706.12Z" transform="translate(0.31 1)"/><path class="cls-2" d="M792.36,539c-4.33,0-7.62,2.5-10.58,5.39s-5.54,6-8.65,8.55c-5.17,4.31-9.07,9.51-10.56,16s-5.17,10.92-10.57,14.2A24.47,24.47,0,0,0,739.69,603a47.34,47.34,0,0,1-8,22.74c-7,10.24-8.82,21.65-9.15,33.6-.29,4.89-.71,10,3.52,13.57a151.46,151.46,0,0,0,14.7,10.74c1.92,1.23,4.58,1.54,7,1.82,3.38.39,5.13-1.32,5.43-4.87.92-10.89,1.71-21.79,2.77-32.66.86-8.84,2.1-17.57,2.28-26.53.38-19.13.91-19.13,9.89-35.65,2.14-3.92,4.51-7.72,6.64-11.64,4.09-7.53,8.65-14.67,14.85-20.71,2.6-2.53,4.62-5.66,6.84-8.56,1.05-1.36,1.61-3.22.37-4.4A6.84,6.84,0,0,0,792.36,539Z" transform="translate(0.31 1)"/><path class="cls-2" d="M1002.62,1138.53q-5-6.91-10.25-13.63a149.07,149.07,0,0,1-21.9-37.84c-3.14-8-6.2-16.08-11-23-8.9-12.8-14.45-27.22-21.52-40.9-.75-1.45-1.37-3-2.14-4.39a8.5,8.5,0,0,0-6.53-4.75c-5.1-.9-5.11-1.23-4.21-6.13,0-1.61.33-3.31-.06-4.82-3.08-12.16-5.94-24.43-11.11-35.91-2.7-6-4.75-6-9.52-.82-1.93,2.08-4,4.05-6,6-2.35,2.33-2.9,5.33-1,7.74,4.57,6,6.21,13.17,8.68,19.94,3.5,9.6,7.1,19.06,13.45,27.17,5.84,7.45,9.24,16.1,13.16,24.59a250.78,250.78,0,0,0,16.64,31.11c5.72,8.86,11.28,17.77,16.23,27,2.92,5.47,6.06,10.46,11.56,13.78,2.39,1.44,4.2,3.81,6.33,5.67,6.12,5.35,12.25,10.67,18.46,15.92a2.21,2.21,0,0,0,2.1-.26,2.45,2.45,0,0,0,.65-2.12A14.66,14.66,0,0,0,1002.62,1138.53Z" transform="translate(0.31 1)"/><path class="cls-2" d="M1233.69,1912.47c-12.06-13.79-24.81-27-39.58-38a42.3,42.3,0,0,0-5.14-3.18,2.44,2.44,0,0,0-3.51,2c-.6,9.06,0,17.84,5.38,25.69,3.54,5.1,5.25,11,6.31,17,.77,4.41,1.77,8.77,2.48,13.18.66,4.09,1.81,8,4.5,11.16,1,1.19,2,.75,2.66-.58.49-1,1.35-2.75,2.25-1,2.62,5.15,6.34,2.33,9.26,1.23,4.84-1.83,4.62-2.13,6.88.92,1.87,2.54,2.59,6,5.93,7.64,2.75-3.22-1.65-7.09,2.14-11.46,5,8,9.5,15.15,13.08,22.89a208.24,208.24,0,0,0,14.11,25.66,27.27,27.27,0,0,0,3.8,4.69,1.84,1.84,0,0,0,3-.6,13,13,0,0,0,1-4.69c.26-8.73-2.13-17-5.6-24.81C1255,1943.17,1246.12,1926.7,1233.69,1912.47Z" transform="translate(0.31 1)"/><path class="cls-2" d="M1467,1707.53c-5.34-6.13-10.21-12.66-16.59-17.83a22.41,22.41,0,0,1-5.83-7.72c-7.59-15.29-15.37-30.48-22.91-45.79-4.59-9.3-11.43-16.72-18.86-23.71a3.83,3.83,0,0,0-4.45-1,3.72,3.72,0,0,0-2.28,4c1.53,10.84,2,22.2,8.42,31.49,9.06,13.07,16.25,27.24,24.91,40.52a117.18,117.18,0,0,1,12.89,26.16,91.28,91.28,0,0,0,5.09,11.07c1.11,2.21,2.64,4.32,5.24,4.75,5.79,1,10.36,4.53,15.53,6.8,10,4.38,20.3,7.93,31.46,12.21.15-4.7-2.13-6.17-3.66-7.93C1486.39,1729.47,1476.64,1718.56,1467,1707.53Z" transform="translate(0.31 1)"/><path class="cls-2" d="M2989.58,1336.69c-10.42,2.64-21,1.58-31.56,1.62-8.53,0-17.06-.11-25.53,1.27-11.63,1.89-23.28,3.61-34.91,5.48-4.45.71-8.92,1.17-13.33.09-8.68-2.1-17.44-4-25.94-6.7-13.06-4.15-17.69-12.85-14.41-26.23.51-2.08,1-3.94-.13-5.78-3.23-5.26-7.08-10.71-12.69-12.74-9.13-3.31-18.92-4.83-28.7-2.2a11.8,11.8,0,0,0-8.5,8c-2.22,6.71.9,16.28,6.87,20.74,1.37,1,3.14,1,4-.84.52-1.07.43-2.41.87-3.53,1.44-3.68,4.38-4.64,7.62-2.91,3.07,1.64,4.52,4.56,6.42,7.18,6.5,8.95,14.08,16.9,23.41,22.87,7.83,5,15.84,10.17,26,7.54a7.56,7.56,0,0,1,3.6.44c10.77,2.94,21.75,2.48,35.56,2,11.87,1,26.36-1.49,40.89-3a126.38,126.38,0,0,0,41-11c.67-.31,1.09-1.13,1.63-1.72C2991.07,1337.08,2990.23,1336.53,2989.58,1336.69Z" transform="translate(0.31 1)"/><path class="cls-2" d="M2113.86,1839.45c-9.29.74-18.69-1.43-27.89,1-11.38,3-22.42-1.27-33.64-1.69-3.69-.13-7.53-2.6-11.6-3.19-3.32-.49-5.71-2.49-7.76-5.34-3.71-5.13-4.9-5.85-9.86-3.47-6.74,3.23-12.67,4.12-18.55-1.4-.75-.71-2.34-.51-3.53-.74-7.15-1.39-14.28-2.81-21.44-4.12a7.33,7.33,0,0,0-3.61.11q-9.74,3.46-19.35,7.23c-.59.22-1.07,1.21-1.24,1.93-.31,1.36.48,2.25,1.71,2.79,3.61,1.59,8.63,1.68,9.73,6.37,1.57,6.71,6.24,7.89,11.85,7.74,18.28-.49,36.2,4.84,54.54,3.36a9,9,0,0,1,2.43.15c15.58,3,31.45,2.06,47.15,3.3,5.27,0,10.74.87,15.77-.23,5.6-1.22,11-2.27,16.8-2.15,4.24.09,6.12-3.76,4.13-7.66C2118.31,1841.12,2116.41,1839.24,2113.86,1839.45Z" transform="translate(0.31 1)"/><path class="cls-2" d="M340.46,1439.16c-10.14-12.67-20.9-24.87-31.66-37-9.92-11.21-21.63-20.81-29.8-33.61-1.92-3-4.12-3.25-7.45-2-4,1.57-5.08,3.79-3.28,7.6A92.73,92.73,0,0,0,285.65,1399a70.53,70.53,0,0,1,10.75,14.61c3.15,5.6,5.84,11.61,10.52,16.31,6,6,11.74,12.38,17.84,18.33,4.63,4.53,9.19,9.4,14.6,12.82,13.1,8.28,25.07,18,36.59,28.17,5,4.41,9.67,5.39,15.5,3.91,2.69-.68,5.3-1.72,9.74-3.2a172.28,172.28,0,0,0-21.33-16.79C365.27,1463.58,351.53,1453,340.46,1439.16Z" transform="translate(0.31 1)"/><path class="cls-2" d="M1078.45,1798.31c-8.46-9.14-18.54-9.57-27.45,0-1.11,1.18-2.4,2.49-2.8,4-3.14,11.29-9.61,20.45-17.67,28.68a11.61,11.61,0,0,0-1.87,3.14c-3.17,6.55-8.37,10.9-14.83,13.94a54.33,54.33,0,0,0-5.4,2.83c-3.9,2.43-4.5,6.36-.88,9a112.49,112.49,0,0,1,14.13,11.41c3.71,3.72,8.4,2.4,10.88-2.64,2.69-5.48,5.3-11,6.14-17.19,1-7,5.45-10.75,11.81-12.44a61.13,61.13,0,0,1,10.81-1.58c3.64-.29,7.32-.21,11-.21,9,0,15-8.08,14.42-16.31C1086.7,1813.4,1083.27,1803.52,1078.45,1798.31Z" transform="translate(0.31 1)"/><path class="cls-2" d="M2786.08,1540.23c-4.43-.52-8.88-.89-14.35-1.43-3,.16-7.17-.07-11.12.67-7.65,1.42-15.36,1.58-23.07,1.74a128.64,128.64,0,0,0-24.14,2.35c-6.74,1.4-13.33,3.45-20.06,4.65-17.19,3.06-34.49,5.47-51.76,8.12-4.81.74-9.65,1.33-14.45,2.15a3,3,0,0,0-1.89,4.67,20.53,20.53,0,0,0,16.22,9.52c8.06.63,16.2,1.16,23.84-2.94,2.4-1.28,5.41-1.64,8.19-1.94,8.48-.92,17-1.57,25.49-2.38,10.52-1,21.05-2.29,31.19-5.3a128.51,128.51,0,0,1,26.35-4.46c5.26-.42,10.51-1.63,15.75-1.54,7.71.13,11.44-5.07,15.48-10.1C2788.72,1542.8,2787.69,1540.42,2786.08,1540.23Z" transform="translate(0.31 1)"/><path class="cls-2" d="M236.87,1520.66c-10.91-4.85-20.6-11.18-27.43-21.34a29.88,29.88,0,0,0-6.06-6c-6.31-5.14-12.65-10.24-19.14-15.15-4.51-3.42-10.1-5.79-13.72-9.93-3.92-4.48-5.7-10.75-9.14-15.73-6.59-9.51-10-20.08-12.89-31.13-1.26-4.86-2.14-9.26-1.29-14.22,1.17-6.82,0-13.57-1.49-20.17-.81,0-1.31-.15-1.6,0-1.83,1.18-2.41,3.17-3.19,5-2.36,5.73-5.46,11-10.75,14.49-3.74,2.49-4.19,5.58-2.42,9.49.83,1.83.84,4,1.73,5.83,8.09,16.36,16.19,32.72,24.53,49a32.37,32.37,0,0,0,6.57,8.74c12.48,11.62,25.15,23,37.84,34.41a20.73,20.73,0,0,0,5.25,3c2.94,1.36,6,2.41,8.94,3.83,8.58,4.18,14.09,4.42,24.89.83C237.29,1521.29,237.16,1520.79,236.87,1520.66Z" transform="translate(0.31 1)"/><path class="cls-2" d="M348.86,1503.7c-11.14-2.84-20.37-10.09-31.27-13.52a19.74,19.74,0,0,1-6.2-3.72c-6.33-5.15-13.22-9.43-20.13-13.76-10.55-6.59-19.39-14.83-23.08-27.33-.82-2.76-1.91-5.59-4.52-7-7.32-4.07-10-11.4-13.66-18.18-4-7.47-7.24-15.46-13.13-21.81-.87-.92-1.88-1.65-3.06-.81a3.45,3.45,0,0,0-1,2c-.86,4.79,1.1,10-1.32,14.44-2.75,5.1-1.39,9.24,1.61,13.57,3.24,4.69,6.35,9.39,10.81,13.1,2.48,2.07,5.25,4.23,6.75,7,6.15,11.26,15.49,19.9,23.8,29.32,8.57,9.72,17.06,19.72,28.16,26.89,5.79,3.74,11.55,7.55,17.44,11.14a6.91,6.91,0,0,0,4.57,1c8.71-1.93,17.4-4.06,25.23-8.61.47-.27.47-1.34.69-2C350,1504.8,349.51,1503.86,348.86,1503.7Z" transform="translate(0.31 1)"/><path class="cls-2" d="M1323.92,1623.76a49.13,49.13,0,0,0-8.12-18.83c-3.19-4.73-6.14-9.75-6.61-15.52-.37-4.45-2.62-7.47-5.35-10.56-5.64-6.39-11.47-12.66-16.57-19.46a59.67,59.67,0,0,0-23.46-18.82c-6.22-2.85-10.71-1.86-13.84,4.33a30.25,30.25,0,0,0-2.76,15.4c.07,1.24,1.14,2.68,2.24,2.21,4.17-1.77,6.18,1.12,8,3.64,8,10.83,17.6,20.12,26.62,30,2.18,2.38,4,5.14,6,7.68a97.13,97.13,0,0,0,6.25,7.46c10.19,10.36,21.08,20,30.33,31.33.4.5,1.44.49,2.18.72,1.5-1.54.32-3.07-.13-4.5C1327.14,1633.79,1324.86,1628.9,1323.92,1623.76Z" transform="translate(0.31 1)"/><path class="cls-2" d="M2743.2,1575.86a52.42,52.42,0,0,0-8.51.36c-15.28,2.6-30.83,1.75-46.17,3.68a36.33,36.33,0,0,1-8.51-.35c-29.3-3.24-58.48-.31-87.67,1.76a35.35,35.35,0,0,0-7.11,1.63,2.32,2.32,0,0,0-1.48,1.53,2.53,2.53,0,0,0,1,2,29.94,29.94,0,0,0,11.55,3.57q9.06,1.2,18.1,2.59c1.86.28,2.82,1.39,2,3.36-.67,1.59-1.13,3.67,1.34,3.16,10.08-2.09,20.26-1.23,30.4-1.34,9.35-.35,18.73-.3,28-1.17,6.85-.63,13.62-2.33,20.37-3.79a201.38,201.38,0,0,1,22.79-3.95c5.22-.52,10.34-2.08,15.52-3.09a18.85,18.85,0,0,0,9.51-5.16,4.84,4.84,0,0,0,1.51-3C2745.87,1576.19,2744.41,1575.85,2743.2,1575.86Z" transform="translate(0.31 1)"/><path class="cls-2" d="M1146.9,1928.17c-2.52-7.28-5.68-14.35-8.09-21.66-4.68-14.19-6.82-28.42,1.17-42.32a16.05,16.05,0,0,0,2.42-9.1c-.37-1.36-.6-3.91-1.7-6-5.71-10.86-14.82-18-25.85-22.95a9.84,9.84,0,0,0-8.29.33c-4.81,2.27-11.83,14.19-11.29,19.32a7.22,7.22,0,0,0,1.32,3.33c4.57,6.17,9.51,12.08,12,19.53.36,1,1.39,2.49,2.27,2.62,5.3.78,5.68,5.21,7,8.92,3,8.36,5.06,17.15,12.51,23.17,2.25,1.82,2.74,4.86,3.65,7.56,2.46,7.31,5,14.61,7.78,21.79a51.43,51.43,0,0,0,4.76,8.4,2.38,2.38,0,0,0,2.13.64,2.14,2.14,0,0,0,1.07-1.81A99.6,99.6,0,0,0,1146.9,1928.17Z" transform="translate(0.31 1)"/><path class="cls-2" d="M2876.28,1780.24q-26.22,1.46-52.48,1.19c-18.35-.15-36.59-1.51-54.82-3.27a62.47,62.47,0,0,1-14.35-2.74,90.91,90.91,0,0,0-31.24-4.56c-5.7.07-11.41,0-17.09-.4-15.93-1.09-30.64,3.48-45,9.57-6.72,2.85-13.12,6.5-19.58,10-.88.46-1.89,1.91-1.75,2.72s1.41,1.89,2.41,2.32c6.41,2.76,13.2,4,20.08,5,4.23.56,8,0,11.22-3.22,1.63-1.67,3.84-2.63,5.65-4.34,5.59-5.26,11.9-9.3,20-10.46a62.71,62.71,0,0,1,18.19-.41c4.43.63,8.92.86,13.33,1.58,7.06,1.15,13.67-2.53,20.51-1.9s13.24,4,20.27,4.12c13.43.23,26.86.58,40.21,2.25a21.43,21.43,0,0,0,6.09,0c10.56-1.79,21.1-.68,31.65-.19a79.61,79.61,0,0,0,9.77-.09,46.91,46.91,0,0,0,21.57-6.73A41.21,41.21,0,0,0,2876.28,1780.24Z" transform="translate(0.31 1)"/><path class="cls-2" d="M1428.2,1698.26c-7.68-11.59-16.34-22.37-29.34-28.67a14.11,14.11,0,0,1-4.43-4c-7.9-9.83-15.71-19.72-23.53-29.61-2-2.56-4-5.17-7-6.71a7.58,7.58,0,0,0-3.44-1c-5.5.1-10.29,9.29-7.3,14a25.66,25.66,0,0,0,11,9.36c12.09,5.62,21.35,14.86,30.64,23.93a57.54,57.54,0,0,1,15.64,28.52,2.14,2.14,0,0,1-1,1.85,2.91,2.91,0,0,1-2.2-.56c-2.51-1.73-3.57-4.43-4.15-7.24-2.26-10.8-10.28-16.15-19.31-20.49-3.82-1.84-6.81-.74-9.39,3-1.77,2.58-1.69,5.08.69,7.77,1.6,1.8,3.31,3.9,5.43,4.78,8.07,3.37,14,9.62,21,14.58,2.3,1.66,4.31,4.13,7.25,4.28,5.85.31,9.64,3.46,13.12,7.77a14.47,14.47,0,0,0,6.07,3.85c4.15,1.61,8.47,2.76,12.58,4.05,1.33.3,2.64.6,3.26-.77a3,3,0,0,0-.15-2.34C1438.58,1715.74,1433.81,1706.72,1428.2,1698.26Z" transform="translate(0.31 1)"/><path class="cls-2" d="M903.76,1977.43c.15-.88-1-2.13-1.81-3-2.17-2.39-4.09-5.3-6.78-6.84-4.71-2.72-3.75-8.92-8-11.73a3.76,3.76,0,0,1,.77-2.11c2.32-2.62,1.52-4.46-1.49-5.31-3.92-1.1-7-4.25-11.21-4.54a2.27,2.27,0,0,1-2.13-2.47c.46-4.47-2-5.65-5.82-5.76a4.44,4.44,0,0,1-4.4-3.51c-.74-2.67.36-4.84,2.38-6.43,4.88-3.83,10.51-3.72,16.27-2.86,2.7.4,4.91,3.15,8.29,1.56-.42-1.06-.56-2.35-1.26-3.11-6.36-6.88-14-7.35-22.31-4.29-7.66,2.81-11.4,8.13-7.3,16.07,3,5.85,2.46,11.62,1.79,17.76-.92,8.33-5.53,15.14-8.84,23.94,10,6,19.38,11.6,28.76,17.23,5,3,10.47,4.32,16.07,5.4A11.93,11.93,0,0,0,905,1996c2.61-1.42,3.54-3.19,2.4-6C905.66,1986,902.94,1982.28,903.76,1977.43Z" transform="translate(0.31 1)"/><path class="cls-2" d="M1715,1803.13q-21-13.39-42.13-26.72c-17.94-11.33-37.21-19.81-57.32-26.44-1.85-.61-3.8-1.61-5.72,0-.48,2.33,1,3.9,2.28,5.39,9.11,10.89,18.14,21.85,27.56,32.46a22.16,22.16,0,0,0,14.77,7.62,167.64,167.64,0,0,1,31.93,6c10.87,3.25,21.71,6.61,32.58,9.9a6.72,6.72,0,0,0,2.33.19,1.36,1.36,0,0,0,.85-.77,1.59,1.59,0,0,0,0-1.19C1720.7,1806.38,1717.76,1804.86,1715,1803.13Z" transform="translate(0.31 1)"/><path class="cls-2" d="M1343.47,579.22c-1.09-.54-2.24-.93-3.37-1.37s-2.3-.81-3.4-1.3c-6.49-2.88-7.69-5.75-5.18-12.27,2.21-5.75,2.07-7-1.75-9a53.17,53.17,0,0,0-8.9-3.8c-7.68-2.36-13.41.25-17,7.48a10.76,10.76,0,0,0-1,3.45,15.64,15.64,0,0,1-3.87,8.74c-4.13,4.7-3.83,10.43-3.82,16.11a8.14,8.14,0,0,0,3.86,7.09c9.62,6.74,20.56,9.17,32,10.16,4.08-.25,8.13-.64,11.83-2.45,5.21-2.56,7.65-6.93,7.84-12.69C1350.86,584.14,1347.69,581.32,1343.47,579.22Z" transform="translate(0.31 1)"/><path class="cls-2" d="M1623.65,1602.67c-2.66-3.07-5.7-5.82-8.24-9-10.73-13.33-23.09-25.07-35.32-37-7.76-7.55-17.28-10.35-27.56-11.51-2.87-.33-4.56,1.46-5.42,3.93a18.62,18.62,0,0,0-.71,3.56,23.35,23.35,0,0,0,2.78,12.94,93.71,93.71,0,0,0,16.94,22.23c2.87,2.84,6.13,5.45,10.14,6.59,2,.55,4.14.53,4.72-2.26a14.22,14.22,0,0,1,.45-2.39c1.81-4.41,4.74-5.8,8.46-3.58a97,97,0,0,1,8.86,6.44c7.76,5.89,15.45,11.86,23.28,17.65.69.51,2.36.23,3.27-.26a2.44,2.44,0,0,0,.78-3.24A16.28,16.28,0,0,0,1623.65,1602.67Z" transform="translate(0.31 1)"/><path class="cls-2" d="M2683.8,1408.6c-2.75.27-4.31-1.84-5.72-3.89-4.47-6.46-10.75-11-16.86-15.69-1.66-1.28-3.8-1.75-5.58-.21s-1.77,3.67-1,5.62a40.77,40.77,0,0,0,2.86,5.32c2.95,5.32,5.92,10.63,8.85,16,.6,1.09.92,2.5-.14,3.25a4.46,4.46,0,0,1-3.34.56,21.49,21.49,0,0,1-5.46-2.52c-5.08-3.31-10.06-6.77-15.08-10.17a25.51,25.51,0,0,0-14.67-4.85,44.42,44.42,0,0,0-5.94,1.56c-3.54,1.38-4.5,4.49-2.65,8s4,7.27,7.75,9.18c8,4.14,14.19,12.26,24.66,11.24,1.8-.17,3.78,1.31,5.67,2.06a27.08,27.08,0,0,0,10.7,2,45.45,45.45,0,0,1,14.41,1.76c4.49,1.32,5.67.42,6.85-4.12,1.59-6.12,4.32-11.88,1.7-18.78C2689.28,1410.91,2688.63,1408.14,2683.8,1408.6Z" transform="translate(0.31 1)"/><path class="cls-2" d="M2758.12,1401.74c-13.41-.17-26.73-1.74-39.11-7.6a21.42,21.42,0,0,0-13-2.13c-4.56.77-6.95,5.6-4.07,9.12a70.33,70.33,0,0,0,11,11.26c6.12,4.72,13,6.78,20.31,2.06a14.27,14.27,0,0,1,11.67-1.78c1.91.45,4.29.7,6-.05,6.07-2.65,12-1.1,18-.06,4.41.77,8.9,2.28,13.26,1.13,5.47-1.44,10.45-.14,15.57,1.17,4.72,1.2,9.64,1.94,14.14,3.71,9,3.55,16.35.13,25.8-5.41-18-3.39-33.44-7.23-49.34-7.73C2778.15,1405.11,2768.39,1401.87,2758.12,1401.74Z" transform="translate(0.31 1)"/><path class="cls-2" d="M1568.86,1766.54c-19-15.23-38.19-30.2-55.68-47.23-7.55-7.34-15.88-13.88-23.92-20.71a28.14,28.14,0,0,0-5.08-3.29,2.29,2.29,0,0,0-2.1.39,2.45,2.45,0,0,0-.43,2.14c3.22,7.56,8.21,14,13.58,20.07,6.18,7,11.84,14.38,15.92,22.92,1.9,4,4.77,7.52,7.17,11.28a15.9,15.9,0,0,0,11.75,7.77c6.85.93,13.53,2.46,19.22,6.85a10.24,10.24,0,0,0,4.56,1.52c3.2.5,6.52.42,9.63,1.2,3.43.85,6.68,2.39,10.25,3.72C1574,1769.09,1570.88,1768.16,1568.86,1766.54Z" transform="translate(0.31 1)"/><path class="cls-2" d="M2826.74,1367.63c-5.11-1.29-10.22-2.6-15.26-4.13-7.35-2.23-9.32-5.24-9.2-13.23,1.56-5.78-1.27-9.49-5.56-12.42-7.56-5.15-16-7.59-25.11-8.18-2.38-.16-4.24,2.75-3.25,5.28a59.66,59.66,0,0,0,7.65,13.76c5.52,7.46,11.19,14.81,13.49,24.17,1,4.24,4.21,6.37,8.8,7.16,9.64,1.66,19.07-.43,28.55-1.14,3.08-.22,5.43-.1,7.87,1.63,2.24,1.58,4.32,3.88,7.55,2.67,1.87-.7.51-3.78-3.33-8A24.07,24.07,0,0,0,2826.74,1367.63Z" transform="translate(0.31 1)"/><path class="cls-2" d="M829.45,1294.61c-12.38-8.57-24.66-17.21-32.38-30.69a13.79,13.79,0,0,0-1.5-1.92c-10.48-12.38-20.63-25-28.33-39.38a74.76,74.76,0,0,0-9-13,68.37,68.37,0,0,1-10.09-15.13c-1.37-2.92-2.79-5.94-5.6-7.84-1.41-1-3.25-1.45-4.23.35-2.14,3.94-3.85,7.84-1,12.48a329,329,0,0,0,24.37,34.89c10.45,12.92,23.46,23.66,32.33,38a29.52,29.52,0,0,0,8.68,8.45c6,4.14,11.94,8.42,18,12.54,4.23,2.89,8.55,5.69,14.13,6.87C834,1296.53,831.33,1295.91,829.45,1294.61Z" transform="translate(0.31 1)"/><path class="cls-2" d="M1490.52,1616.75c-8.52-12.36-18.41-23.78-28-35.39a37,37,0,0,0-12.18-10,7.39,7.39,0,0,0-8.93,1.58c-4.48,4.61-4.87,8.76-1.25,14.24a44,44,0,0,0,12.24,11.78c6.71,4.59,13.62,8.89,20.42,13.34,9.23,6,17.84,12.55,23.52,22.5,3,5.22,7.44,9.63,11.38,14.28a12.29,12.29,0,0,0,3.93,2.66c.36.18,1.21-.64,2.32-1.26-.83-1.76-1.53-3.64-2.54-5.34C1505.41,1635,1497.21,1626.46,1490.52,1616.75Z" transform="translate(0.31 1)"/><path class="cls-2" d="M340.29,1191.19c-1.15-1.66-2.67-3.3-3.11-5.17-2.37-10.12-8.16-19.34-7.52-30.3.18-3-.51-6.65-3.17-8.92-3.69-3.15-7.59-6.12-12.2-7.85-1.54-.58-3.38-.48-4.3,1.14-.52.91-.85,2.71-.34,3.3,5.18,6,5.33,13.17,5.36,20.48,0,6.47,3.72,12,5.8,17.81,1.49,4.19,4.56,8.34,7,12.41,4.56,7.57,10.48,14.33,15.88,21.4a8.58,8.58,0,0,0,1.89,1.52c5.28,3.75,10.55,7.54,15.9,11.2a15.31,15.31,0,0,0,4.36,2c.56.17,1.37-.53,2.3-.94a14.1,14.1,0,0,0-1.71-3C356.37,1215.55,348.56,1203.19,340.29,1191.19Z" transform="translate(0.31 1)"/><path class="cls-2" d="M1193.61,1954c-1.55-.76-2.31-3.25-3.28-5a78.59,78.59,0,0,1-6.84-16.89,55.2,55.2,0,0,0-7.13-15.4,16,16,0,0,0-7.24-6.28c-4.29-1.82-8.56.46-8.8,5.1-.35,6.88,0,13.57,2.88,20.22,3.34,7.58,7.24,14.38,13.88,19.57,3.47,2.7,6.76,5.73,6.88,10.91,0,1.78,1.62,3.62,2.75,5.25.93,1.33,2.88,2.85,4,1.83,4.07-3.61,7.69,1.85,12.32-.09C1201.59,1965.4,1201.53,1957.84,1193.61,1954Z" transform="translate(0.31 1)"/><path class="cls-2" d="M1611.46,1769.33a277.52,277.52,0,0,0-35.59-23.41c-8.88-5-18.54-8.22-28.3-11-1.53-.44-3.46-.35-3.9,1.61a3.76,3.76,0,0,0,1.27,3.08c2.89,2.21,6,4.16,9,6.17,3.39,2.25,8.08,3.7,9.93,6.83,4.53,7.68,12,11.93,18,17.88,6.85,6.82,14.57,11.79,24.92,10.71,2.81-.18,5.65-.22,8.44-.59s4.14-3.28,2.3-5.34A48.5,48.5,0,0,0,1611.46,1769.33Z" transform="translate(0.31 1)"/><path class="cls-2" d="M2729.54,1336c-4.47-.72-8.25.73-10.32,4.7-1.85,3.54-3,7.24-6.75,9.61-2.73,1.71-2.7,5-1.26,7.69a23.5,23.5,0,0,0,5.09,6.73c6.81,5.75,13.86,11.21,20.88,16.71,1.26,1,2.94,1.93,4.47,1.12,2.66-1.42.61-3.43.32-5.26-.75-4.67-.93-9.48-2.11-14-1.33-5.15,1.06-8,4.64-11,2.92-2.45,5.18,2,7.74.11C2746.94,1344.24,2737.25,1337.24,2729.54,1336Z" transform="translate(0.31 1)"/><path class="cls-2" d="M994.83,465.59c-7.3-.54-14.58-.56-21.68,1.52-4.32,1.26-8.36,2.92-10.84,7.16a9.1,9.1,0,0,1-5.7,4.27c-3,.73-4.17-1.93-6-3.41s-3.52-2.18-5.58-1.61a108.82,108.82,0,0,0-11.52,3.7c-2,.8-2.82,2.82-2.26,5.07a26.25,26.25,0,0,0,1.19,3.43c5.59,13.85,8.14,12.53,18.07,5.24,12.36-9.07,26.45-13.65,41.62-15.17a73.11,73.11,0,0,0,8.3-1.32c.56-.12.91-1.18,1.36-1.81a7.57,7.57,0,0,0-.45-2.28C999.92,467.85,998,465.82,994.83,465.59Z" transform="translate(0.31 1)"/><path class="cls-2" d="M2296.2,1426c-5.65,2.11-10.81,2.58-15.73-2-1.68-1.55-4.36-2-6.56-3-4.43-2-8.64-1.93-12.55,1.21-3.58,2.87-7.73,4-12.2,5-6.37,1.36-7.75,4.73-5.3,10.6a79.2,79.2,0,0,0,3.54,7.72c.51.94,1.8,1.45,2.7,2.13a22.77,22.77,0,0,0,3.71-.79c9.71-3.89,20.57-4.82,29.21-11.55,1.48-1.15,3.79-1.22,5.72-1.78,3.11-.91,6.35-1.52,9.29-2.79s6.41-1.46,7.93-4.88C2302.66,1422.59,2299.35,1424.84,2296.2,1426Z" transform="translate(0.31 1)"/><path class="cls-2" d="M111.36,1140.54c-1-1.36-2.72-2.13-4.21-.74-2.86,2.68-6.28,3.58-10,3.81a3.87,3.87,0,0,1-4.29-4.52,22.17,22.17,0,0,1,1.92-5.74c2.35-4.3.93-7.87-1.86-11.16-3-3.59-8.55-5.77-10.56-4.28-3.11,2.31-1.8,6-2.75,9.87,2.52,11,3.12,23.84,18.06,27.87a10.33,10.33,0,0,1,3.1,1.91c6.69,4.86,13.71,4,20.76,1.07,1.63-.66,2.62-2.42,1.19-3.84C118.33,1150.48,114.88,1145.5,111.36,1140.54Z" transform="translate(0.31 1)"/><path class="cls-2" d="M2863,1279.77c-4.69-1.28-9.34-2.73-14.07-3.88-5.63-1.37-9.65,2-9.3,7.75.26,4.2,2.23,7.75,4.45,11.18,4.18,6.47,9.27,12.32,12.7,19.3,1.55,3.16,4.6,4.42,8.41,4.22,2.31,0,4-2.81,2.84-5.25a48.83,48.83,0,0,0-3.1-5.2c-1.1-1.68-3.2-3.74-1.74-5.36,2.47-2.76,1.44-7.12,5-9.25,5.11-3.09,5.29-4.28,2.69-8.17A13,13,0,0,0,2863,1279.77Z" transform="translate(0.31 1)"/><path class="cls-2" d="M992,2000.88a36,36,0,0,0-13.12,1.93,45.89,45.89,0,0,1-5.71,1.78,5,5,0,0,1-6-4.47c-1.32-10.4-.71-20.32,7.61-28.15,1.13-1.07,2.58-2.61,1.3-4.06-1.59-1.82-3.84-1-5.47.26-8.81,6.59-13.31,15.51-11.6,26.36,1.31,8.39,2.76,16.68,2.09,25,3.66,1.4,5.73-1.71,8.63-1.5a60.61,60.61,0,0,0,8.51-.32c6.74-.47,12.61-2.94,17.12-8.08,1.34-1.53,2.31-3.43,1.5-5.56S994,2001,992,2000.88Z" transform="translate(0.31 1)"/><path class="cls-2" d="M2310.48,1574.38c-6.39-3.47-12.69-7.16-19.28-10.19a26.28,26.28,0,0,0-11.73-2.83c-4,.12-6.78,3-6.79,8.18.88,4.88,2.07,10.83,5.42,16.06,1.89,3,4.65,4.65,8.24,3.86,7.9-1.73,15.78-3.55,23.6-5.56a4.77,4.77,0,0,0,2.24-7.82A6.86,6.86,0,0,0,2310.48,1574.38Z" transform="translate(0.31 1)"/><path class="cls-2" d="M1837.56,2005.79l0-.17h-.17Z" transform="translate(0.31 1)"/><path class="cls-2" d="M1911.61,1992.69c-2,0-4,.26-6,.36-18.59,1-37.11,3.47-55.79,2.82-6.47-.22-12.94-.48-19.41-.68-1.26,0-2.58.21-2.64,1.77a2.41,2.41,0,0,0,1.31,1.71c1.83.83,3.78,1.38,5.65,2.14,2.15.88,2.47,2.86,2.83,4.81,7.63-.18,15.28-.61,22.91-.47,15.89.29,31.49-2.1,47.06-4.74a14.44,14.44,0,0,0,5.45-2.34c.76-.51,1.06-2.08,1.09-3.18A2.27,2.27,0,0,0,1911.61,1992.69Z" transform="translate(0.31 1)"/><path class="cls-2" d="M898.31,796.88c-4-3.15-3.74-6.28-1.88-10.53,2.81-6.43.94-12.65-4.33-17.16a5.44,5.44,0,0,0-5.65-1.14c-2.49,1-3.47,3.21-3.49,5.81a13.36,13.36,0,0,0,.45,2.37,179.78,179.78,0,0,1,2.77,32.34,32.55,32.55,0,0,0,.3,4.83c.64,4.82,2.06,6.13,7,6.52,1.21.1,2.42,0,5.89,0-1,.08.18.1,1.36-.13,2.19-.43,4-1.89,3.78-4C903.84,809.06,904.46,801.68,898.31,796.88Z" transform="translate(0.31 1)"/><path class="cls-2" d="M2263.17,1584.9c-8.57-2.82-16.21-7.45-24-11.82a16.25,16.25,0,0,0-9.39-2c-4.49.35-7.43,3.12-8.12,7.64-.72,4.67.74,8.83,3,12.8,1.75,3.12,4.43,4.65,10.69,4.11,7.14-2.59,17.4-2.6,27.22-5,1.56-.39,3.37-1,2.89-3.09A4.16,4.16,0,0,0,2263.17,1584.9Z" transform="translate(0.31 1)"/><path class="cls-2" d="M1168,432.79a7.08,7.08,0,0,0-1.22-.05c-13,.63-25.85-.18-38.24-4.79a6.82,6.82,0,0,0-4.62.51,19.35,19.35,0,0,0-9.2,9.35c-1.14,2.26.33,4.63,3,5.57,3.6,1.28,7.25.71,10.85.56,6.46-.29,13.12.78,19.34-1.34,7-2.37,12.36,3.24,18.8,2.94,4,.43,6.73-1.94,7.17-6.27C1174.15,436.1,1171.56,433.23,1168,432.79Z" transform="translate(0.31 1)"/><path class="cls-2" d="M2663.51,1452.68c-1.66-.46-3.1.6-4.21,1.85a9.72,9.72,0,0,0-2.27,6.72c-.26,6.9,3.22,12.36,7,17.66,1.26,1.78,3.39,2.17,5.45,2a58.65,58.65,0,0,0,19.69-5.53c4.59-2.16,4.85-4.69,1.78-8.47C2683.83,1458.13,2673.64,1455.46,2663.51,1452.68Z" transform="translate(0.31 1)"/><path class="cls-2" d="M2655.19,1478.13a11.61,11.61,0,0,0-5.22-2.78,43.55,43.55,0,0,1-18.84-7.82,8.31,8.31,0,0,0-3.41-1.18,5.12,5.12,0,0,0-5.91,3.13,30.71,30.71,0,0,0-1.27,4c0,7.1,2.93,12.34,6.83,17.11,2.81,3.45,6.51,4.54,10.88,3.4a70.27,70.27,0,0,0,15.72-6.32C2658.62,1485.16,2659.13,1481.36,2655.19,1478.13Z" transform="translate(0.31 1)"/><path class="cls-2" d="M223.43,1072.56c-2.82,0-5.65-.49-8.45-.34-1.49.08-3.56.62-4.29,1.69-5,7.36-13,12.08-17.56,19.89-3,5.22-3.2,7.36.52,11.74a4.69,4.69,0,0,0,7.36.22,27.62,27.62,0,0,0,5.35-9.41c2.46-6.51,7.46-9.18,14-9.56,1.6-.09,3.22,0,4.83,0,8,.11,9.44-2.19,5.67-9C229.24,1074.78,227.16,1072.6,223.43,1072.56Z" transform="translate(0.31 1)"/><path class="cls-2" d="M1031.75,1959.17c-10,.59-12.72,2.68-15.2,12.15a100.52,100.52,0,0,0-2.32,11.93c-.47,3.48-4,7.77-.89,10.26,3.95,3.18,7.07-1.89,10.34-3.69a28.09,28.09,0,0,0,6.58-5.34c5.19-5.48,8.41-11.86,8.06-19.67C1038.09,1959.6,1036.75,1957.74,1031.75,1959.17Z" transform="translate(0.31 1)"/><path class="cls-2" d="M787,958.88c-.48-1-1.79-1.48-2.9-2.35-1.1.58-2.35.91-3.09,1.7-4,4.29-5.18,10-7.45,15.18a2.84,2.84,0,0,0,.16,2.3C777.37,981.52,781,987.35,785,993a3.56,3.56,0,0,0,5.36.76c1.28-1,2.36-2.23,3.66-3.2,3.36-2.5,4.22-5.41,2.86-9.55C794.3,973.27,790.63,966.08,787,958.88Z" transform="translate(0.31 1)"/><path class="cls-2" d="M925.82,501.26c-2.44-1.47-5-2.65-8-1.07-4.29,2.28-8.79,4.19-12.93,6.71-6.43,3.92-7.89,13.64-3.06,19.05a13.71,13.71,0,0,0,3,1.94,16.7,16.7,0,0,0,3.54-1.21c5.07-3.2,9.07-8.13,15.47-9.22.82-.15,1.64-1.68,2-2.73a34.43,34.43,0,0,0,2.07-7C928.28,505.4,928.25,502.74,925.82,501.26Z" transform="translate(0.31 1)"/><path class="cls-2" d="M123.36,1090.87c-.7-3.39-2.94-5.68-5.82-7.38-6.13-3.62-12.71-.69-13.65,6.29-.7,5.29-.56,10.62,4,14.53a15.58,15.58,0,0,1,4.92,8.12c.57,2.06.33,5.43,3.8,5.1,2.14-.2,3.09-2.49,3.8-4.34,1.86-4.89,4.15-9.69,3.95-16.22C124.12,1095.65,123.85,1093.24,123.36,1090.87Z" transform="translate(0.31 1)"/><path class="cls-2" d="M1092.55,439.88c-7.37,2.11-14.67,4.4-20.7,9.52s-4.58,10.29.32,15.52a6.49,6.49,0,0,0,2.14,1,6.34,6.34,0,0,0,2.35-.36c5.55-3.26,11.17-6.42,16.51-10,4.11-2.75,4.61-7.33,4.58-11.86A4.36,4.36,0,0,0,1092.55,439.88Z" transform="translate(0.31 1)"/><path class="cls-2" d="M1984,1454.23c-3.36.87-5.66-3.75-9-1.79-3.11,1.79-2.58,5.78-4.49,8.37a63.8,63.8,0,0,0-4.12,6,7.17,7.17,0,0,0-.26,7c.72,1.46,2.63,3.44,3.51,2.72,3.72-3,7,.87,10.38.15,6.15.27,6.78-.38,8.9-5.71A16.35,16.35,0,0,0,1989,1458C1988,1455.57,1987.23,1453.39,1984,1454.23Z" transform="translate(0.31 1)"/><path class="cls-2" d="M738.84,2017.34c-16.41-5.25-32.59-4.39-50.4,3.45,5.52,2.29,8.48.26,11.61-.23,11.39-1.75,22.63-1.81,33.67,2.16,7.13,2.58,11.3,7.5,13.06,14.8.63,2.64-.47,5.65,1.89,8.23a18.68,18.68,0,0,0,2.55-10.54C750.5,2027,747.23,2020,738.84,2017.34Z" transform="translate(0.31 1)"/><path class="cls-2" d="M259.53,1329.23c-1.56-1.32-3.3-2.29-5.2-2.11-6.28.15-8.82,4.55-5.49,9.68a47.55,47.55,0,0,1,6.72,15.38,20.31,20.31,0,0,0,1.59,4.51c1,2,5.41,2.62,6.32.8,2.25-4.49,6.3-8.5,4.89-14.2A26.57,26.57,0,0,0,259.53,1329.23Z" transform="translate(0.31 1)"/><path class="cls-2" d="M2347.68,1568.68c-1.34-.84-3-2-4.36-1.78-5,.86-9.57-1.13-14.37-1.37a6.55,6.55,0,0,0-5.45,2.09c-2.2,2.43-2.78,9.63-.8,12.69,1.76,2.71,4.7,2.79,8.12,2.61,5.28.29,10.62-1.68,16-3.48,2.38-.8,4.55-2.33,4.72-5S2349.78,1570,2347.68,1568.68Z" transform="translate(0.31 1)"/><path class="cls-2" d="M1749.37,1472.34a49.13,49.13,0,0,1-14.09,3.36,10.51,10.51,0,0,0-8.09,4.82c-3.61,6.1-9.19,10.09-14.46,14.46-.85.7-1.8,1.64-.62,3.28,2.77-1.39,5.48-3.6,8.47-4.08,6-1,10.25-3.79,14-8.33,2.77-3.32,3.71-2.92,9.24-.21a32.12,32.12,0,0,0,5.74,1.65l2-2.07c1.45-2.88,3.15-5.62,2.69-9.13C1753.89,1473.33,1751.76,1471.3,1749.37,1472.34Z" transform="translate(0.31 1)"/><path class="cls-2" d="M1883.19,1435.76a15.6,15.6,0,0,0-8.1,3c-3.27,2.38-6.82,4.45-9.77,7.17-3.44,3.17-7,5.17-11.84,5.09-8.74-.14-12,7.25-10.24,14.17a2.4,2.4,0,0,0,1.58,1.48,2.11,2.11,0,0,0,1.73-1.1c1.92-7,6-10.37,13.45-8.53a3.22,3.22,0,0,0,4-1.83c.82-1.79,1-4,3.17-4.88,2.45-1,3.56,1,5,2.24a2.39,2.39,0,0,0,2.22.32c4.74-3.65,10.25-6.5,13.23-12.05C1888.81,1438.73,1886.61,1435.67,1883.19,1435.76Z" transform="translate(0.31 1)"/><path class="cls-2" d="M197.7,1052.22c-3.88,1-7.57,3.11-11.48,3.59-5,.61-8.09,3-10.33,7.22a71.08,71.08,0,0,1-4.67,7c-1.27,1.85-1.57,3.75-.21,5.6q2.87,3.9,6,7.6c.46.53,1.44.61,2.16.9A2.84,2.84,0,0,0,182,1081c-1-10.08,4.76-15.73,12.74-20a36.83,36.83,0,0,0,5.22-3,3,3,0,0,0,.79-4.3A3.75,3.75,0,0,0,197.7,1052.22Z" transform="translate(0.31 1)"/><path class="cls-2" d="M1772.15,1484.11c-1.58.05-3.51,0-4.66.82-5.33,3.94-10.58,2.67-15.92.29l-2,2.07c-1.91,2.09-3.66,4.36-5.76,6.24-2.48,2.22-4.75,4.59-5.5,7.85-1,4.32-3.58,7.09-7.37,9.11a6.3,6.3,0,0,0-2.2,2.79,2.61,2.61,0,0,0,.81,3.26c.57.44,1.61,1,2.12.72,4.82-2.18,9.68-4.47,11.87-9.79,1.92-4.67,6-7.65,8.81-11.56,1.24-1.7,3.11-2.85,5.27-2.27,7,1.88,11.1-3.65,16.34-6.21.34-.17.43-1.59.12-2.12A2.64,2.64,0,0,0,1772.15,1484.11Z" transform="translate(0.31 1)"/><path class="cls-2" d="M320.32,1095.23c-3.55-.66-4.55,2.67-5.61,5.26-1.36,3.34-3.31,6.51-3.32,9,.75,6.85,1.27,12.47,2.06,18.06.13,1,1.25,2,2.15,2.61a3.76,3.76,0,0,0,5.67-2.47q2.34-11.25,4.39-22.55a7.11,7.11,0,0,0-.31-3.57C324.37,1099,323.33,1095.79,320.32,1095.23Z" transform="translate(0.31 1)"/><path class="cls-2" d="M634,1842c-6.06-.64-12.18-.84-17.56,2.57-3.81,2.42-7.94,3.83-12.12,5.31a33.48,33.48,0,0,0-6.41,3.29c-1.33.82-2.75,2.12-1.49,3.85a4.68,4.68,0,0,0,3.06,1.61c4.6.41,8.8-1.52,12.65-3.47,4.86-2.46,9.55-4.18,15.32-2.52,2.08,0,4.49.11,6.89,0a4.39,4.39,0,0,0,4.33-3.53,5.44,5.44,0,0,0-1.51-5.53A6.2,6.2,0,0,0,634,1842Z" transform="translate(0.31 1)"/><path class="cls-2" d="M1917.81,1442.74c-1.64-1.23-3.06-.41-4.36.64-3.73,3-21.12,26.37-23.13,31.07a6.75,6.75,0,0,0-.64,2.34,3.16,3.16,0,0,0,.51,2.19c1.1,1,2.1.22,3-.63,6.33-6,11.18-13.56,19-18.25,2.62-1.58,4.38-4.76,6.14-7.47a14.33,14.33,0,0,0,1.56-4.25C1919.92,1445.16,1919.19,1443.76,1917.81,1442.74Z" transform="translate(0.31 1)"/><path class="cls-2" d="M991.64,1797.29c-14.22,7.46-22.23,22.53-20.88,39.29a6.38,6.38,0,0,0,.85-2c.47-12.1,7.61-20,16.44-27.15,8.27-6.66,17.24-5,26.28-3a2.6,2.6,0,0,0-.63-3.22C1007.63,1794.72,999.29,1793.27,991.64,1797.29Z" transform="translate(0.31 1)"/><path class="cls-2" d="M2408.7,1552.35a30.69,30.69,0,0,0-5.21-3.09c-3.57-1.66-6.87-4.3-11.23-3.44-1.24,5.53,4.71,5.5,6.63,8.58.42.68.8,1.38,1.61,2.77-3.16,3.41-7.8,4.13-9.59,8.08a5,5,0,0,0,.27,3.39,2.29,2.29,0,0,0,2,.93c4.69-1.17,9.36-2.45,14-3.81,3.05-.9,7.39-1,8.16-4.32C2416.46,1556.76,2411.89,1554.7,2408.7,1552.35Z" transform="translate(0.31 1)"/><path class="cls-2" d="M2139.6,1873.93c-6.95-4.14-14-8.16-17.39-16.18-.22-.54-1.34-.7-2.05-1a5.42,5.42,0,0,0-2.84,5c-.31,8.16,5.41,17.1,12.9,20.24a18.38,18.38,0,0,0,5.81,1.45c2.51.16,4.89-.68,5.85-3.33S2142.07,1875.41,2139.6,1873.93Z" transform="translate(0.31 1)"/><path class="cls-2" d="M2471.07,1782.18c-12.33,3.68-19.07,14-26.92,23.38,4.68-2.2,9.37-4.36,14-6.59,5.45-2.6,10.92-5.16,16.31-7.9,3.51-1.79,7.78-3.22,7.2-8.43C2481.38,1779.79,2477.57,1780.24,2471.07,1782.18Z" transform="translate(0.31 1)"/><path class="cls-2" d="M825.12,1086.93c-5.81,7.53-5,15.2,2.27,21a30.84,30.84,0,0,0,3,2c2.69,1.66,4.61,1,5.39-2.1.59-2.32,1-4.69,1.1-5.27.55-6.81-.73-11.36-3.6-15.46A4.94,4.94,0,0,0,825.12,1086.93Z" transform="translate(0.31 1)"/><path class="cls-2" d="M2722.16,1459.05c-5.71-2.88-11.44-5.71-16.61-6.52-4.82,0-7.1,3.26-5.89,6.61,3.92,10.84,7.84,12.43,17.72,7.12a53,53,0,0,0,5.07-3.16A2.51,2.51,0,0,0,2722.16,1459.05Z" transform="translate(0.31 1)"/><path class="cls-2" d="M1703.46,1488.85c-1.43.5-3.21,1.49-3.75,2.74-3,6.83-8.31,7-14.29,5.44-2-.49-3.91-1.61-5.88-.57a109.39,109.39,0,0,1-22.54,9.08,1,1,0,0,0-.38,1,17.11,17.11,0,0,0,1.61,2.21c7.09-2.18,15.15-1.36,22-5,4.46-2.37,8.83-4,13.85-3.92,5.31,0,9.22-2.9,12.54-6.61a2.85,2.85,0,0,0-3.19-4.31Z" transform="translate(0.31 1)"/><path class="cls-2" d="M347,1048.06c-6-.57-12.26,4.73-12.61,10.74a9,9,0,0,0,1.69,5.72c3.22,4.65,7.17,4.62,10.33-.16,1.12-1.69,2.31-3.33,3.39-5,1.65-2.61,1.54-5.39.68-8.21A4.65,4.65,0,0,0,347,1048.06Z" transform="translate(0.31 1)"/><path class="cls-2" d="M326.81,1762.05c.38-1.12.9-2.57-.4-3.09a3.63,3.63,0,0,0-3.29.58c-5.12,5.76-11.68,4.69-18.14,4.08-1.6-.16-3.17-.67-4.76-1-2.31-.46-4.67-1.88-6.91,0-1.19,1,2.07,3.76,5.9,4.77a24.61,24.61,0,0,0,6,1.13c9.32.13,18.65.17,28,0a13,13,0,0,0,10.37-4.73c-4.66.73-9.31,1.58-14,2.1C326.78,1766.22,326,1764.57,326.81,1762.05Z" transform="translate(0.31 1)"/><path class="cls-2" d="M343.74,1763.55l-.24.27.39-.07Z" transform="translate(0.31 1)"/><path class="cls-2" d="M1031.28,957.75a4.53,4.53,0,0,0-5.88-2.81c-7.87,2.31-8.94,5.93-3.31,11.75a19,19,0,0,0,4.89,3.43c3.52,1.85,6.47-.19,6.23-5.81A65.18,65.18,0,0,0,1031.28,957.75Z" transform="translate(0.31 1)"/><path class="cls-2" d="M2457,1360.34c-5.58,1.14-11.06,2.8-16.86,2.1-1.21-.16-2.42-.37-3.63-.48s-2.5.16-2.52,1.68a2.31,2.31,0,0,0,1.23,1.81c4.64,1.43,9.29,2.91,14,4,3.82.83,7.26-.68,10-3.32a3.41,3.41,0,0,0,.71-4.44A3.64,3.64,0,0,0,2457,1360.34Z" transform="translate(0.31 1)"/><path class="cls-2" d="M2165.25,1596.05a1.66,1.66,0,0,0,.74,2.83,54.85,54.85,0,0,0,6.47.94c3.41,0,6.26.28,8.82-1.14a3,3,0,0,0,1.42-1.76,2.58,2.58,0,0,0-.76-2.11C2175.92,1589.85,2170.51,1590.24,2165.25,1596.05Z" transform="translate(0.31 1)"/><path class="cls-2" d="M280.12,1737.82c-4-3.36-7.28-3.81-10.95-1.26-4.44,3.08-8,6.91-8.41,12.68-.07,1.11.15,2.75.87,3.29,1.12.83,2.06-.44,2.53-1.47,1.51-3.31,2.76-6.75,5.59-9.27,2.24-2,4.59-3.37,7.52-2,.51.27.85.5,1.22.65,1,.38,2.25,1.11,2.66-.54C281.3,1739.29,280.68,1738.28,280.12,1737.82Z" transform="translate(0.31 1)"/><path class="cls-2" d="M1831.87,1455.64c-4.72-3.32-9.19-2.53-12.53,2.27a3.51,3.51,0,0,0,.17,4.48,2.57,2.57,0,0,0,3.3.45c2.18-1.15,4.31-2.39,6.81-1,1.63.35,3.42.88,4.26-1C1834.85,1458.55,1833.62,1456.87,1831.87,1455.64Z" transform="translate(0.31 1)"/><path class="cls-2" d="M1957.07,1471.07c.32-.66-1.53-1.64-2.82-1.51a4.91,4.91,0,0,0-3.86,2.62,9.06,9.06,0,0,0-.85,8.17c1.25,3.17,3.19,5.57,7.82,6C1957.06,1481.17,1954.7,1476.08,1957.07,1471.07Z" transform="translate(0.31 1)"/><path class="cls-2" d="M1091.78,1957.65c-4.89,2.22-6.46,6.42-4.33,11.77.27.67,1,1.13,1.56,1.67.72-.25,1.81-.31,2-.74,1.13-2.93,1.67-6.12,4.65-8,1.22-.78,3.09-1.24,2.62-3.43C1097.93,1957.42,1094,1956.64,1091.78,1957.65Z" transform="translate(0.31 1)"/><path class="cls-2" d="M2046.31,1471.24c-4,7.37-4,10.85,0,15.5a3.91,3.91,0,0,0,3.25,1c2-.51,1.92-2.27,1.34-3.88C2049.49,1479.74,2048,1475.66,2046.31,1471.24Z" transform="translate(0.31 1)"/><path class="cls-2" d="M669.62,1348.74a3.31,3.31,0,0,0-2.81,1.52,3.6,3.6,0,0,0,1.14,3.1,10.12,10.12,0,0,0,4.33,2c3.94.74,7.93,1.2,11.9,1.77A21.59,21.59,0,0,0,669.62,1348.74Z" transform="translate(0.31 1)"/><path class="cls-2" d="M2334.73,1409.52c-3.1-.11-5,1.38-4.95,3.88.06,1.78.95,3.18,2.74,3.43,2.88.39,6.36-1.9,6.58-4.07C2339.26,1411.27,2337,1409.6,2334.73,1409.52Z" transform="translate(0.31 1)"/><path class="cls-2" d="M2018.66,1474.33c-1.66.62-2.18,2.23-2.12,3.9a7.55,7.55,0,0,0,3.21,6.07,3.55,3.55,0,0,0,2.13.26c.26,0,.49-.52,1-1.09-.37-2.08-.77-4.4-1.21-6.71C2021.33,1475.14,2020.75,1473.55,2018.66,1474.33Z" transform="translate(0.31 1)"/><path class="cls-2" d="M343.89,1763.75l.24-.21h-.39Z" transform="translate(0.31 1)"/><path class="cls-2" d="M344.13,1763.54c8.93-.18,9.06-.25,16.59-5.43C353.75,1759.3,348.37,1759.55,344.13,1763.54Z" transform="translate(0.31 1)"/><path class="cls-2" d="M1666.4,1648.85l.15-.16-.32,0Z" transform="translate(0.31 1)"/><path class="cls-2" d="M1660,1644.52a9.31,9.31,0,0,0,6.28,4.12C1664.58,1646.63,1663.46,1643.85,1660,1644.52Z" transform="translate(0.31 1)"/><path class="cls-2" d="M649.21,1341l.4,0-.26-.21Z" transform="translate(0.31 1)"/><path class="cls-2" d="M655.05,1341.88a42.45,42.45,0,0,0-5.44-.81c2.31,1.9,5,3,9.58,3.73C656.84,1343.1,656,1342.14,655.05,1341.88Z" transform="translate(0.31 1)"/></g></svg>