<svg xmlns="http://www.w3.org/2000/svg" viewBox="0 0 3046 2052"><defs><style>.cls-2{fill:#fff;}</style></defs><g id="Layer_1" data-name="Layer 1"><path class="cls-2" d="M2,0V699.67a20.49,20.49,0,0,0,2.57,2.84c5.57,5.17,12.2,8,19.4,9.76,17,4.23,34.05,7.91,50.67,13.54,6.85,2.33,14.3,3.14,21.56,3.93a129.93,129.93,0,0,1,24,4.39c13.67,4.15,27.26,4,40.93.44,5.54-1.44,11.17-2.82,16.87-2.18,13.72,1.56,25.5-3.77,37.14-9.79,2.17-1.12,4.23-2.46,6.36-3.64a59,59,0,0,1,18.28-6.44A106.35,106.35,0,0,0,274,700.33c7.36-4.27,14-9.72,21-14.63,2.71-1.9,5.21-4,6.45-7.16,1.89-4.77,5.44-7.9,9.47-10.84,4.95-3.6,9.71-7.65,12.36-13.28,2.5-5.33,6.33-9.39,10.37-13.42q15.13-15.09,30.2-30.24a68,68,0,0,0,7.39-8.1,51.94,51.94,0,0,1,11.12-11.18c6.21-4.71,11.58-10.3,14.72-17.61,8.15-18.93,22.63-32.7,38-45.49,7.4-6.17,13.57-12.94,17.27-21.67,2.22-5.25,5.75-8.49,10.56-11.19,16.33-9.14,32.49-18.57,48.72-27.88,3.17-1.82,6.44-3.49,8.67-6.58,1-1.38.45-3.64-1.12-3.95a25.92,25.92,0,0,0-3.61-.51c-23.91-1.31-24.17-1.34-44.43,11.88a71,71,0,0,1-21.25,9,27.32,27.32,0,0,1-20.13-2.36c-7.67-4-9-6.75-7.33-15.54,1.25-6.64-.35-10-6.09-12.85-4.16-2.08-8.62-2.13-13.11-2.28-6.9-.23-14,.44-20.65-1.1-15-3.49-29.88-7.91-44.69-12.34-7.05-2.12-9.1-5.8-8.34-12.86.65-6,1.2-12.14,2.23-18.14,2.31-13.52,8.71-24.43,21.12-31.14,5-2.7,10.11-5.25,15.21-7.79,4.41-2.19,8.66-4.67,11.88-8.43,7.32-8.55,17-12,27.7-14,8.93-1.66,17.64-2.35,26.6-.33a96.61,96.61,0,0,0,16.9,2.38c13.21.57,26.15-.57,36.43-10.33A234,234,0,0,1,519,305.25c6.64-4.42,10-10.44,10.09-18.4a51.77,51.77,0,0,1,2-13.22c2.36-8.8,7.65-13.58,16.79-15.39,11.73-2.31,23.47-2,35.26-2.2,7.9-.14,15.3,1.22,22.3,5.1,9.48,5.24,19.78,7.19,30.57,7.11q22-.17,44,0A49.69,49.69,0,0,0,701.33,264a79.87,79.87,0,0,1,22.22-6.37c6.44-.9,13-1.39,19.34-2.53a30.27,30.27,0,0,1,14.48.66c11.52,3.54,23.33,2.9,35.13,2.81a30.13,30.13,0,0,0,17.2-5.29c4.71-3.2,9.6-6.15,14.57-8.92,7.87-4.39,15.94-8,25.41-7.22a26.2,26.2,0,0,0,9.61-1.37c14.77-4.56,29.57-9.06,43.88-15,3.8-1.57,6.89-4.23,10.32-6.28,12.21-7.27,25.5-12.26,39-16.74a8.1,8.1,0,0,1,2.42-.21c11-.24,21.79-2.62,32.67-4,8.05-1,16.35-3.47,24.14-2.4,13,1.8,26,.81,39,1.51s25-2.49,36.2-8.88c2.47-1.41,5.18-2.45,7.53-4,5-3.34,10.41-4.28,16.25-4.21,9.36.12,18.72,0,28.09,0,4.48,0,9,0,13-2.38,3.82-2.3,7.73-1.93,11.79-.85,10.61,2.82,21.25,5.54,31.86,8.38a15.89,15.89,0,0,1,4.45,1.93,59.42,59.42,0,0,0,35.64,10c1.62-.07,3.25.09,4.88.05,6.62-.14,11.92,2.37,15.56,7.94,3.33,5.08,7.67,9.5,9.73,15.43q2.64,7.59,10.89,8.4a70,70,0,0,1,9.56,1.89c12.24,2.95,24.29,6.63,36.78,8.62,6.79,1.08,14,2,19.64,6.2,10.26,7.77,22,12.26,33.82,16.65a49.69,49.69,0,0,1,22.27,16.41,117,117,0,0,1,7.18,9.86,25.22,25.22,0,0,0,6.53,7.12c4,2.87,7.86,5.8,11.58,8.95,9.64,8.15,21,11.4,33,9.08,9.16-1.76,14.82,1.08,19.32,8.37.21.34.58.58.81.91a58.55,58.55,0,0,0,24.65,21.07c8.38,3.91,12.34,11.56,11.84,21-.18,3.42,1.18,8.22-3.3,9.35-3,.75-3.71-3.72-5.54-5.76-.81-.91-1.47-2-2.34-2.82-5.71-5.57-12.34-9.37-20.49-9.59-9.16-.26-11.61,3.66-8,11.87,2.63,5.92,6.57,11.12,8,17.71,3.34,15.26,13,25.82,26.4,33.23,6,3.36,12.34,6.24,18.49,9.42,5,2.59,8.2,6.5,9,12.28.43,3.22,1.27,6.38,1.75,9.6a12.12,12.12,0,0,1-1.51,8.25c-1.64,2.7-2.67,6.76-6.38,6.71-4.11-.05-4.17-4.38-5.16-7.31-.79-2.29-.93-4.79-1.58-7.14a26.2,26.2,0,0,0-12.27-16.05c-9.75-5.76-21.6-.39-23.27,10.73-.47,3.17-.05,6.47,0,9.72s.39,6.49.11,9.69c-.65,7.31-1.49,14.58-6.48,20.62-1.55,1.87-.82,4,1.48,4.88,2.63,1,5.47,1.57,8.13,2.56,6.08,2.24,12.66,3.67,17.41,8.45,4.38,4.41,9.63,5.78,15.53,5.77,4.47,0,9,.29,13.42-.09,8.55-.74,17-2.11,24.28-7.22a38.4,38.4,0,0,1,18.21-6.5c8.18-.94,15.86-3.55,23.75-5.47,6.15-1.5,11.48-4.22,15.58-9a34,34,0,0,1,20.77-11.78,47.31,47.31,0,0,0,29.24-16.28,33.38,33.38,0,0,1,2.62-2.56c5.67-5.41,12.22-8.2,20-5.87,9.81,2.92,17.44-1,24.52-7.14a35.06,35.06,0,0,0,10.14-15,101.24,101.24,0,0,1,13.21-26,75.11,75.11,0,0,0,4.92-8.43,28.39,28.39,0,0,0-9.16-37.59,75.08,75.08,0,0,0-8.61-4.54c-1.87-.92-4-1.84-4.38-3.94-1.38-6.9-6-12.55-7.62-19.16-2.44-9.85-3.87-20-5.43-30a19.62,19.62,0,0,1,6.7-18.67,45.89,45.89,0,0,0,9.73-12.43c3.79-6.92,10.07-9.08,17.56-8.34,2.42.24,4.8.88,7.2,1.27,10.46,1.7,20.45.18,29.28-5.67,6.68-4.43,14-6.42,21.62-7.81,10-1.81,20.1-2.81,29.85-6,6.32-2.06,12.06.21,16.82,4.63,1.77,1.64,3,3.88,4.59,5.68,6.28,6.93,11.2,15,18.16,21.37,7.2,6.61,15.24,10.66,25.21,10.52,4.06-.06,8.23-.19,12.16.65,10.08,2.16,20.24,1.6,30.4,1.89,8.36.24,16.21-1.15,23.38-5.58,9-5.55,18.77-7.51,29.21-6.84,2,.13,4.07,0,6.1,0,23-.2,43.3-6.68,58.44-25.15,2.58-3.14,5.4-6.08,7.9-9.29,4.27-5.49,8.89-10.62,14.71-14.49a36.35,36.35,0,0,0,16-23.65c3.32-16,14.13-24,29-27.78,11.65-3,23.38-2.65,35.13-.89s23.22,1.76,34.9-2c15-4.88,28.1-.25,38.26,11.86a33.3,33.3,0,0,1,7.71,17.66c1.22,10.08,1.75,20.32,3.88,30.21,3.6,16.68,8.2,33.14,12.41,49.68.4,1.57,1.05,3.08,1.59,4.61,2.39,6.72,6.85,10.64,14.16,11.7a153.87,153.87,0,0,1,38.56,11.26,35.34,35.34,0,0,0,22.72,1.75,334.78,334.78,0,0,1,43.19-7.71c18-1.86,35.76-2,52.65,6,8.82,4.18,17.74,8.14,26.7,12,8.49,3.66,15.21,9.64,20.57,16.84a191.07,191.07,0,0,1,15,23.67c5.4,10,2.69,21.38-6.23,28.53a33.65,33.65,0,0,1-9.44,5.49c-8.94,3.21-16.81,8.17-24.48,13.56-9,6.36-18.92,11.18-28.94,15.69-10.85,4.89-22.15,8.07-34.3,7.09-3.64-.29-7.32-.08-11-.09-6.92,0-13.84-.24-20.42,2.61-3.61,1.55-7.17.87-10.61-.79-1.84-.88-3.7-1.7-5.54-2.57-14.27-6.74-27.06-3-38.53,6.24-5.72,4.62-11.37,9.21-17.81,12.75-9,4.93-15.59,11.66-17.7,22.08-1,4.79-4.05,7.63-8.46,9.63-12.57,5.69-24.54,12.88-38.62,14.67a26.49,26.49,0,0,0-8.1,2.66c-14.5,7.11-25.62,17.12-29,33.87a83,83,0,0,1-4,12.77c-2.74,7.25-1.17,13.59,3.65,19.31a32.84,32.84,0,0,0,5.15,5.19,99.36,99.36,0,0,0,33.69,16.57,22,22,0,0,0,6,.89c17.9-.18,35.55,4.17,53.53,2.82,6.19-.47,12.1,1.27,17.8,3.64,5.16,2.14,8.93,5.66,10.59,11.09s3.43,10.86,4.66,16.41c1.49,6.78,3.15,13.59,6.25,19.73,4,8,8.31,15.81,11.69,24.11,2.61,6.42,7.61,10.32,14.09,12.63,6.27,2.22,12.56,3.36,19.17,2,2.39-.49,4.77-1.09,7.18-1.4,10.51-1.34,20.38-.62,27.57,8.69a19.18,19.18,0,0,0,3.63,3.26c8.65,6.59,18.13,8.94,28.71,5.53,3.87-1.25,7.79-2.38,11.61-3.77,7.46-2.71,14.49-1.41,21.12,2.36a82.37,82.37,0,0,1,10,6.93c5.45,4.25,10.66,8.81,16.1,13.07a83.65,83.65,0,0,0,21,12.18c8.63,3.38,16.65,2.56,24.6-1.91,6-3.38,12.31-6.31,18.28-9.79,13.08-7.63,27.29-10.19,42.18-10.09,10.59.07,21.17-.12,31.75.08,9.88.18,18.21-3.17,25.58-9.67a187.29,187.29,0,0,1,27.6-20.09c15.55-9.33,31.77-16.57,50.68-14.23a171.28,171.28,0,0,1,25.08,5.11,67.18,67.18,0,0,1,25.54,13.84c4.34,3.68,8.59,7.67,13.48,10.47,15.37,8.79,31.14,11.41,47.12,1.13a25.26,25.26,0,0,1,6.5-3.22q11.75-3.3,23.63-6.08a32.78,32.78,0,0,1,9.64-1,120.84,120.84,0,0,1,18.12,2.42c16.69,3.87,33.51,5.92,50.61,7.33,15.05,1.24,30,1.43,45.07,1.72a66.56,66.56,0,0,0,20.42-3,162.33,162.33,0,0,1,28.22-6.22V0ZM282.33,573.48c-.33,6.87-2.39,8.49-9.15,8.23-4.06-.16-8.13-.51-12.19-.51-10.56,0-21.09.91-31.62,1.5-16.22.92-32.29,3.92-48.63,3.21-13.68-.59-15.33-1.84-15.38-15.78-.12-30.11,0-60.22,0-90.33h-.19V394.35c0-5.69,0-11.39-1.31-17a26.09,26.09,0,0,1-.09-12.11,38.16,38.16,0,0,0,0-18.12,33.34,33.34,0,0,1-.84-7.26c-.26-20.74-.59-41.49-.62-62.23,0-17.9.36-35.8.52-53.7.06-7.33-.12-14.63-1.6-21.87a50.69,50.69,0,0,1-.74-9.71q-.24-22.58-.29-45.16c0-6.2,1.5-7.8,7.84-8.28,2.83-.22,5.69-.16,8.54-.16q22.59,0,45.17,0c10.57,0,21.15.48,31.62-1.81a32.67,32.67,0,0,1,8.51-.28c7.78.43,10.24,2.73,10.87,10.22.28,3.24.19,6.51.2,9.76q.09,39.06.14,78.12A108.12,108.12,0,0,0,274.3,253a87.55,87.55,0,0,1,.94,13.36c.15,12.21.15,24.42.17,36.62,0,8.55,0,17.05,1.65,25.53.82,4.35.6,8.92.61,13.39q.13,43.93.15,87.89A119.88,119.88,0,0,0,279.08,448a105.36,105.36,0,0,1,1,15.8c.16,25.22.18,50.45.22,75.68a118.53,118.53,0,0,0,1.4,19.44A70.3,70.3,0,0,1,282.33,573.48Z" transform="translate(0.31 1)"/><path class="cls-2" d="M2313.47,1868.12a54.26,54.26,0,0,0-7.15-1.46c-2-.3-4.06-.32-6.07-.56-2.84-.35-4.67-1.24-2.79-4.65.62-1.13-.53-2.21-1.66-2.83a13.46,13.46,0,0,0-12.76-.34c.61,2,.85,3.93-.27,5.81a12.09,12.09,0,0,0-2,6.77c.08,5.08-.68,5.8-4.82,6.76-8.34,1.93-16.6,3.32-25.28,1a112.84,112.84,0,0,0-22.88-3.49c-4.79-.28-9.57-1.84-14.22-3.25-4-1.23-5.22-3.51-3.68-7.47a54.36,54.36,0,0,0,3.53-15.42c1-11.85-7.39-19.84-19.26-20-12.7-.18-19,13.26-13.36,22.25,3.92,6.25,7.89,12.26,14.56,16.08,2.77,1.58,1.8,5.28-1.31,6.63a9.8,9.8,0,0,1-8.27,0,51.28,51.28,0,0,1-5.22-3.11c-3.79-2.28-7.28-5.72-12.07-5-3.86.55-3.51,5.11-5.66,7.37-1,1-2.39.44-3.09-.67-1.62-2.59-1.08-5.48-.91-8.32.15-2.41.63-5,0-7.23-3.37-12.91-17.81-21-30.58-17.39a7.74,7.74,0,0,0-6,6.93c-.83,6,.38,11.19,4.79,15.69,4.08,4.16,9.14,6.71,14,9.63a5.47,5.47,0,0,1,2.65,6.27c-.53,2.48-1.75,4.61-4.3,5.5-5.22,1.83-16.72-1.47-20.08-5.83a25.72,25.72,0,0,1-5.83-15.68c-.14-7.08-1.74-8.35-8.84-8.44a74.23,74.23,0,0,0-10.93.79,164.74,164.74,0,0,1-47.4-.15c-8.44-1.29-16.93-2.75-25.42-3-21.54-.62-43.13.41-64.56-2.67-2.27-.33-6.29.67-6.25-1.88,0-3.38,3.68-1.27,5.79-1.33,1.62,0,3.25.3,4.87.19,2-.13,4.2-.46,4.8-2.91.52-2.15-.52-3.93-1.93-5.49a8.67,8.67,0,0,0-6.53-2.82c-5-.08-9.64,1.37-14.17,3.23a4.08,4.08,0,0,0-2.42,3.91c0,1.83,1.65,4-2.22,5.75-12-3.64-25.54-3.83-38.84-5.41-11.28-1.33-22.66-2.19-33.93-3.77-25-3.49-49.87-7.4-74.85-10.84-8.44-1.16-17-.92-25.48-2.47-4.49-.83-6.8,2-5.65,6.64.9,3.69,1.42,7.06-.24,10.66-1.06,2.33-.43,4.75.71,7.05a56.8,56.8,0,0,1,2.92,6.7c2.22,6.53.5,9.13-6.34,9.72-2,.17-4.07.15-6.1.14-11,0-22-.49-33,0-16.53.77-32.56-2.67-48.16-6.77-20.07-5.26-40.06-10.78-60.35-15.16-7.58-1.64-14.83-4-21.6-8.07-4.46-2.69-9.67-4.2-14.61-6-26.75-10-54.93-14.82-82.35-22.4-13.49-3.74-25.7-10-38-16.35-2-1.06-1.78-3.65.49-4.79,2.9-1.46,6-2.61,8.89-4,4.41-2.08,8.8-4.19,13.13-6.42a2.66,2.66,0,0,0,1.2-3.16c-.42-1.64-1.25-3.13-3-3.42a6.92,6.92,0,0,0-3.55.36c-6,2.41-12,5-18.07,7.42-4.88,1.94-6.68,1.75-9.54-2.21-2.48-3.42-4.94-6.28-9.32-7.18-2.64-.55-3.8-2.66-4.12-5.39-.78-6.86-4.88-11.83-9.63-16.42a43.54,43.54,0,0,1-5.76-6.24c-3-4.38-6.22-8.44-10.78-11.44s-7-7-4.75-12.53c1.56-3.84-.09-6.38-2.9-8.37-7.35-5.21-13.36-11.88-20-17.9-12-11-24.38-21.5-36.39-32.45-9.3-8.47-19.38-16.33-25.89-27.36a197,197,0,0,0-15.39-22,144.49,144.49,0,0,1-11.42-15.77,53,53,0,0,0-16-16.57c-4.73-3.22-9.45-6.18-13.06-10.71a4.17,4.17,0,0,0-3.25-1.14,3.64,3.64,0,0,0-3,3.39c-1.5,10.34-.82,20.27,5.26,29.3,3.63,5.4,7.27,10.82,10.38,16.52a160.72,160.72,0,0,0,13.22,20.48c3.43,4.52,7,9.1,9.42,14.17a98.6,98.6,0,0,0,11.55,18.61c6,7.66,12.74,14.89,18,23a141.61,141.61,0,0,0,33.7,36.59c3.29,2.49,5.75,5.69,8.25,8.93,13.7,17.77,28.75,34.26,46.54,48.09a39,39,0,0,1,10.81,13,79.51,79.51,0,0,0,7,11.38c5.33,7.08,12.68,11.32,21.06,13.86,8.15,2.47,13.88,7.26,18.18,15a82,82,0,0,0,29.71,30.11c9.42,5.67,18.22,12.35,27.78,17.59a494.54,494.54,0,0,1,42.35,26.44c19.45,13.37,39.69,25.58,62.54,32.61a28,28,0,0,1,10.51,6c10.11,9,22.26,13.27,35.51,14.61a55.73,55.73,0,0,1,13.14,2.52,34.33,34.33,0,0,0,13.17,2,32.7,32.7,0,0,1,9.65,1c9.23,2.43,18.55,2.31,27.91,1.63,12.22-.9,24.41,0,36.49,1.33,8.13.91,16.19,1.64,24.32,1.08a88.7,88.7,0,0,1,20.65,1.3c13.24,2.18,26.47,4.42,40,4.09a92.1,92.1,0,0,1,12.14,1c18.67,2.1,37.4,1.68,56,.39,7.69-.53,15.39-1.13,23.08-1.73,17.42-1.35,35-2.43,51.13-10.18a45,45,0,0,1,21.29-4.44,47.77,47.77,0,0,0,6.09-.39c15-1.49,30-2.59,44.85-4.62,18.13-2.48,36.12-5.63,53.35-12.41,13.23-5.2,26.37-10.82,40.43-13.64a106,106,0,0,0,30.89-11.11c5.71-3.16,11.73-5.69,18.54-5.25,3.85.25,7-1.79,10.34-3.26,9.64-4.21,19.12-8.94,29.07-12.21,18.64-6.11,36.14-14.69,53.75-23.08a32.69,32.69,0,0,0,6.18-3.87,3.73,3.73,0,0,0,1.33-3C2315.87,1869.32,2314.5,1868.43,2313.47,1868.12Z" transform="translate(0.31 1)"/><path class="cls-2" d="M2282.92,1858.34l.12-.06s0,0,0-.08Z" transform="translate(0.31 1)"/><path class="cls-2" d="M745.56,1372.91c-13-3.17-25.72-7.93-39.37-7.91a47.94,47.94,0,0,1-14.4-2.32c-3.88-1.21-7.85-2.14-11.77-3.25-4.82-1.36-9.55-2-14.16.77-3.09,1.86-6.26,1.36-9.36,0-1.86-.83-3.71-1.69-5.51-2.63-14.64-7.67-30.75-11.06-46.65-13.77s-30.59-8-45.55-13.07c-5.38-1.81-10.49-4.31-16.18-5.27a38.81,38.81,0,0,1-9.34-2.78c-12.24-5.52-24.67-10.71-36.45-17.08A211.49,211.49,0,0,0,469,1293.28c-11.46-4.21-23-8.13-34.46-12.4-6.47-2.41-12.62-5.72-19.18-7.82-9.34-3-18.22-7-27.15-11-4.08-1.8-7.88-4.23-11.94-6.1-5.18-2.38-10.1-3.33-13.61,3-1.11,2-3.39,1.94-5.39.78-2.91-1.69-5.59-3.72-5.6-7.42,0-7.57-5.42-10.42-11.14-12.91-2.7-1.17-5.67-1.27-8.14.64-3,2.31-3.13,5.49-2,8.84.26.77.58,1.52.91,2.27a6.26,6.26,0,0,1-.82,6.82c-1.7,2.27-3,4.8-4.66,7.13-4.24,6.07-6.57,6.57-14.3,3.29-3.91-1.66-6.36-.92-8.07,2.42-2.92,5.71-2.48,9.56,1.89,14.47,2.16,2.43,4.25,5.11,6.9,6.87,8.15,5.38,13.54,14.18,22.87,18.11,1.72.72,2.88,2.78,4.26,4.26a83.81,83.81,0,0,0,5.79,6.24c8.83,7.68,19.07,13.74,26.42,23.15a10.94,10.94,0,0,0,4,2.69c7,3.31,13.71,7,19.62,12.13,1.1,1,3,.94,4.58,1.35a.25.25,0,0,0,0-.07l.17,0c1.47-1.7,2.88-3.46,4.46-5,.32-.32,1.31,0,2,.08-.15.68-.08,1.54-.48,2a10.06,10.06,0,0,1-6,3l-.1.11h-.05c1.19,4.84,4.68,7.48,9.11,8.89,6.78,2.16,11.89,6.63,17.38,10.91,7.9,6.17,15.69,13,26.14,14.92a8.81,8.81,0,0,1,3.36,1.4c14,9.69,30.69,14.57,44.26,25a9.74,9.74,0,0,0,5.68,1.88c9.4-.19,16.35,5.57,25.13,9.13-2.43,1.77-4,3-5.66,4.09-4.68,3.12-5.28,7.37-4.81,12.75,1,11.7,4.4,22.92,6,34.48,1.27,9,9.05,12.68,17.22,8a54.75,54.75,0,0,1,13.45-5.51c7.47-2,14.92-4,22.34-6.17q9.35-2.75,18.59-5.88c1.82-.61,4-1.22,4.18-4.28-2.21-1.27-4.66,0-7-.23-2.11-.17-4.48-.63-4.8-2.9-.55-4-3.14-5.23-6.35-6.43-5.72-2.12-11.29-4.62-17-6.79-6.71-2.57-9-7.44-8.57-14.39.71-11,7.67-20.13,18.47-23.11a75.29,75.29,0,0,1,13.17-2.28c12-1.08,23.21-3.92,32.39-12.28l6.53-1.85c7.88-4.38,15.54-3.79,23.05,1,2.4,1.53,4.75,3.4,7.4,4.22,5.28,1.62,10.51,4.09,16.25.45,6.39-4.06,7.06-3.57,10.1,3.85a20.66,20.66,0,0,0,.82,2.29c1.17,2.07,3,2.93,5.05,1.61a98.07,98.07,0,0,0,14.48-11.15c5-4.71,10-9.81,16.48-12.45,7.9-3.22,14.9-8.42,23.31-10.54a3.83,3.83,0,0,0,2.29-2.47C748.65,1374.45,747.17,1373.31,745.56,1372.91Zm-312.32-34.25a5.76,5.76,0,0,1-4.65,2.7c-.89.08-1.47-.65-1.08-1.41a5.45,5.45,0,0,1,4.63-2.75C433,1337.1,433.41,1337.74,433.24,1338.66Z" transform="translate(0.31 1)"/><path class="cls-2" d="M399.93,1360l-.17,0a.25.25,0,0,1,0,.07h.05Z" transform="translate(0.31 1)"/><path class="cls-2" d="M2768.13,1072.31a37,37,0,0,0-9.59,10.91c-4.53,7.24-9.16,14.42-14,21.43-1.82,2.61-4.07,6-6.75,6.74-9.54,2.57-14.45,10-20.05,16.93a70.24,70.24,0,0,1-4.72,5.58c-3,3-6,3-8.29-.21-6.09-8.63-11.92-17.46-17.76-26.27-2-3-1.71-6.13.21-9.17a49.92,49.92,0,0,0,3.62-6.35,3.76,3.76,0,0,0-.31-3.27c-1.21-1.43-3-1-4.36,0a15.43,15.43,0,0,0-3.5,3.34,87.9,87.9,0,0,0-6.07,9.15c-4.92,9-11.31,16.74-18.15,24.36-7.28,8.12-13.31,17.36-19.8,26.17a2.19,2.19,0,0,0,.43,2.1,2.23,2.23,0,0,0,2.12.1c1.38-.82,2.53-2,3.9-2.89,3.73-2.35,5.74-1.76,8.05,1.69,2.6,3.86,2.13,8.81,4.28,12.53s6.77,5.75,8.66,10c.16.37.37.72.56,1.08a5.65,5.65,0,0,1-.59,6.83c-3.85,4.18-7.49,8.79-12.07,12-7.51,5.28-12.49,12.74-18.64,19.18-2.39,2.5-4,5.1-2.5,8.72,1.25,3-.09,5.46-1.94,7.83-2,2.56-4.28,5.05-5.54,8-3.35,7.7-9.71,10.48-17.3,11.74-4.39.72-8-.21-10.7-4a74.54,74.54,0,0,0-5.06-6.87c-3.23-3.69-15.59-4.45-19.33-1.22a10.82,10.82,0,0,0-2.85,3.86,14.18,14.18,0,0,0,11.92,19.63c2,.15,4.05-.31,6.08-.36,1.69,0,3.32.3,3.83,2.24a4.4,4.4,0,0,1-1.35,4.43,36.38,36.38,0,0,1-5.67,4.57,17.05,17.05,0,0,0-8,10.18c-.88,3-2.19,6.28-5.14,8.1-6.27,3.88-12.89,7.68-20.4,7.09-5.83-.45-10.31,1.32-14.69,4.5l-11.84,8.59c2.47.92,2.95,2.44,1.24,4.47-.77.92-1.9,1.74-3.08,1.1s-.86-2-.58-3.16c-8,1.68-15,.6-21.35-5.52-3.85-3.72-9.5-4.45-15-3.79a10.43,10.43,0,0,0-9.07,7.15c-4.08,11.28,2.41,19.77,14.29,18.78,1.61-.14,3.19-.69,4.81-.82,2-.16,4.21-.61,6,0,3.37,1.12,7.2-.81,10.51,1.5-4.61,4.43-16.17,11.19-20.75,12.2a6.11,6.11,0,0,1-5.67-1.38c-1.21-1.09-2.27-2.35-3.55-3.34-2-1.5-4.17-1-4.64,1.61-1,5.47-3.76,7.73-9.28,7.08-2-.24-3,1.24-2.16,3.15a7.35,7.35,0,0,1-1,8,28.71,28.71,0,0,0-3.2,5.17c-3,6.45-8.28,9.31-14.91,7.65-9.07-2.26-16.81.28-24.48,4.53-9.6,5.33-19.11,10.85-28.94,15.7-14.59,7.19-29.38,14-44.18,20.71a63.2,63.2,0,0,1-12.74,4.13c-4.52,1-8.62,4-13.89,3.78,2.62-6.72,2.91-8.22,2.05-9.93-2.19-4.4-8.45-8.14-13-7.53s-6.72,4.23-8.37,8c-1.92,4.42-.1,7.47,5,8.67a31.88,31.88,0,0,1,3.56.62,2.78,2.78,0,0,1,1.58,1.61,2.68,2.68,0,0,1-.56,2.18,11.09,11.09,0,0,1-3,2.09c-19.3,9.89-40.65,14.16-60.65,22.15a4.23,4.23,0,0,1-5.94-2.7c-2.31-6.86-8.32-8.35-14.17-10.19-3.86-1.22-7.15-.32-10.18,2.28-5.65,4.84-10.39,10.46-12.85,17.51-2.3,6.57-6.84,9.69-13.36,10.93a87.86,87.86,0,0,0-11.79,3.12c-5.81,2-6.82,4.42-5.19,10.13,4.31,15.15,15.43,24.43,27.86,32.6,2.57,1.69,5.26,1.36,8.15.37,15-5.14,29.64-11.24,45.52-13.36,3.12-.42,6.15-2.08,9-3.52,14.57-7.24,29.16-14.41,44.07-21,28.64-12.62,56.94-26,85.55-38.71,17.54-7.79,34.52-16.35,49.24-28.88a46.43,46.43,0,0,1,5.09-3.33c11.57-7.45,24.65-12.59,34.58-22.55a3.64,3.64,0,0,1,1-.69c8-4.15,14.74-10.08,21.9-15.42,9.78-7.29,20-14,29.48-21.68,15.78-12.77,31.16-26,46.58-39.26a63,63,0,0,0,8.29-8.9,230.07,230.07,0,0,1,34.22-34.69c22.42-18.51,40.91-40.65,60.26-62,9.24-10.2,16.69-22,28.32-30a35.78,35.78,0,0,0,7.76-7.73c6.67-8.67,13.27-17.41,19.49-26.4,2.55-3.68,5.15-7.25,8-10.75,7.1-8.87,13.91-18,20.69-27.11a95.08,95.08,0,0,0,5-8.39c2.81-4.77,2.14-9.31-.84-13.73C2773.71,1071.09,2770.73,1070.44,2768.13,1072.31Zm-263.78,276.24c-.93-.06-1.51-.62-1.19-1.47a3.29,3.29,0,0,1,3.48-2.41,1.09,1.09,0,0,1,.64.81A3.39,3.39,0,0,1,2504.35,1348.55Zm192.28-199.21c-3.42,2.08-7.1,3.75-10.66,5.6l0,0c2.67,1,4.12,2.87,2.36,5.55a29.71,29.71,0,0,1-9.47,9.23,3.94,3.94,0,0,1-5.44-.86c-1.64-2-1.65-5.2.35-6.53,3.95-2.63,8.12-4.95,12.2-7.39h0l0,0,.13-.07c-4.39.67-8.78,1.3-13.16,2-4.89.82-8.75-.72-11.54-4.81-1.59-2.33-3.21-4.66-4.63-7.1-1.52-2.62-1.83-5.46.07-8,5.8-7.76,11.49-15.62,17.71-23,4-4.8,7.33-4.35,10.58.78,2.37,3.75,4.18,7.84,6.5,11.62a107.26,107.26,0,0,0,7.53,11C2703.31,1142.57,2701.49,1146.37,2696.63,1149.34Z" transform="translate(0.31 1)"/><path class="cls-2" d="M2685.93,1155l0,0,0,0Z" transform="translate(0.31 1)"/><path class="cls-2" d="M201.1,1116.3c-9.33-11.23-19.7-21.69-26.5-34.86a20,20,0,0,0-2.85-4,179.16,179.16,0,0,1-19.09-26.76,157.33,157.33,0,0,0-9.61-14.12c-13.73-18.17-27.27-36.46-39.49-55.7a19,19,0,0,0-3.21-3.61c-.92-.85-2.3-1.37-3.34-.52a4.75,4.75,0,0,0-1.67,3c-.2,3.63-.08,7.28-.08,13-.89,7.44.73,16.19,4.87,25,15,32,29.25,64.4,43.83,96.62a52,52,0,0,1,3.57,10.31c1.57,7,6.46,10.06,13.45,8.84,2.4-.42,4.69-1.43,7.09-1.83,19.1-3.19,36.33.45,50.68,14.23,2.65,2.54,5.2,5.16,7.89,7.64,1.16,1.07,2.75,2.42,4.23,1.28,1.67-1.29.41-3-.61-4.16C220.56,1139.22,210.7,1127.87,201.1,1116.3Z" transform="translate(0.31 1)"/><path class="cls-2" d="M521.68,1490.6c-12.67-5.5-25.4-10.88-38.08-16.37-7.08-3.08-14.25-6-21.13-9.52q-18.53-9.42-37.83-17c-11.79-4.62-22.93-10.48-32.86-18.49a101.45,101.45,0,0,0-17.52-11.06c-24.24-12.42-44.07-30.4-62.76-49.83-2.95-3.07-3.61-5.77-.81-9.59,2-2.77-.31-5.54-3.78-5a47,47,0,0,0-14.84,5.42c-3.1,1.66-8.35,2.84-7.38,6.92,1.3,5.54,6.57,3,10.33,2.41,4.41-.74,7.06,1.33,8.79,4.91,2.86,5.94,7,10.92,11.15,15.95s9.35,9.78,11.51,15.62a49.12,49.12,0,0,0,25.35,28.24,6.73,6.73,0,0,1,1,.75A186.82,186.82,0,0,0,387,1455c4.76,2.26,9.94,4.38,13.67,7.89,10,9.43,22.71,14.17,34.3,20.82,2.47,1.42,5.21,2.64,8.11,2.32,6.48-.71,13,1.18,19.45-.55,5.3-1.42,10.34-.37,15.35,2a70.13,70.13,0,0,0,33.18,6.8c3.24-.16,6.5-.25,9.73-.52a2.37,2.37,0,0,0,1.71-1.33A2.11,2.11,0,0,0,521.68,1490.6Z" transform="translate(0.31 1)"/><path class="cls-2" d="M303.38,1209.51a139.43,139.43,0,0,0-24.14-16.11c-2.41-1.29-4.72-.23-6.67,1.45-2.51,2.15-5.16,3.87-8.69,3.67-2.08-.12-4.05-1.81-3.86-3.81.16-1.6.74-3.14,1-4.73.86-6.22-2.65-10.2-9.64-9.9-4.33.79-9.29,2.23-13.18,6.24-4.25,4.4-3.53,7.22-.11,11.42,6.09,7.48,14.32,13,19.13,21.64,1.36,2.41,3.8,2.78,6.36,1.66,1.94-.85,3.87-1.5,5.22.91,2,3.62,5.12,3.54,8.4,2.37,8.37-3,16.33-7.06,25-9.13C304.94,1214.54,305.6,1211.38,303.38,1209.51Z" transform="translate(0.31 1)"/><path class="cls-2" d="M2128.43,1530.84c-3.14-1.5-6.39-1.07-9.49.12-3.78,1.46-7.55,3-11.2,4.76-8.72,4.16-17.59,6.26-27.1,2.86-6.6-2.37-12.57-2-17.82,3.49-3.31,3.48-7.9,3.93-12.51,3.27-2.41-.35-4.77-1-7.18-1.38-7.43-1.23-14.51-1.07-20.7,4.25-4.26,3.66-9.27,4.63-14.85,3.28a26.84,26.84,0,0,0-20,2.83c-7.85,4.41-15.41,4.32-22.91-.85-4.19-2.89-9.26-2.82-14-3.69-3.58-.65-6.23,1.16-8.51,3.72-3.18,3.57-2.24,8.56,2.31,9.69,6.28,1.55,12.75,2.35,18.76,3.41,4.47-.85,8.55-1.28,12.42-2.42,16.38-4.81,32.78-9.3,50.06-9.16a21.37,21.37,0,0,0,3.62-.47q43.28-7,86.56-14a46.69,46.69,0,0,0,12.82-3.7c1.48-.69,3-1.83,2.39-3.69A5.05,5.05,0,0,0,2128.43,1530.84Z" transform="translate(0.31 1)"/><path class="cls-2" d="M1896.69,1530c-7.93-6.79-42.75-30.53-51-37-4.3-3.36,12.47-7.48,8-11-5.15-4-152.29-62-158-62-4.53.13-.49,7.59-2,11s131.16,76.89,133.37,79.53a44,44,0,0,0,5,5.31c9.71,8.33,21.09,13.6,33.33,16.75a62.43,62.43,0,0,1,15.73,6.06c5.27,3,10.85,5.45,16.38,8a3.82,3.82,0,0,0,3.33-.35c1.5-1.22,4.91-3.06,3.88-4.26C1901.52,1538.33,1900.34,1533.13,1896.69,1530Z" transform="translate(0.31 1)"/><path class="cls-2" d="M2452.54,1776.84c-9.77-5.8-19.83-6.61-30.1-1.26-3,1.55-5.47,3.73-6.52,6.94-1.37,4.22-2.31,8.58-3,11.21-.14,5.68,1.47,8.81,4.2,11.5s6.2,3.64,9.91,4.11c6.49.82,7.75.43,9.86-5.83,1.65-4.92,4.28-8.6,8.87-11a21.86,21.86,0,0,0,8.19-7.12C2456,1782.35,2455.51,1778.6,2452.54,1776.84Z" transform="translate(0.31 1)"/><path class="cls-2" d="M2339.13,1844.49c2.07-10.52-5.22-19.65-16.82-20a56.43,56.43,0,0,0-7.07,1.64c-10.47,3.61-13.3,13.54-6.29,22.28,2.28,2.84,5.11,5.23,7.63,7.89,6.59,7,14.24,7,22.37,3.39,2.17-1,3.16-2.93,1.54-4.91C2337.8,1851.54,2338.39,1848.23,2339.13,1844.49Z" transform="translate(0.31 1)"/><path class="cls-2" d="M2282.92,1858.34l.1-.14-.1.09Z" transform="translate(0.31 1)"/><path class="cls-2" d="M2275.9,1839.7c-4.83-4.84-10.85-8.2-17.34-6.69-7.11,1.65-11.12,7.63-12.52,15-.15.79-.34,1.58-.48,2.38-.66,3.55.67,6.33,3.41,8.51,4.13,3.29,8.8,5.65,13.52,8s8.66,1.53,12.42-1.39c2.83-2.2,5.36-4.76,8-7.17A22.8,22.8,0,0,0,2275.9,1839.7Z" transform="translate(0.31 1)"/><path class="cls-2" d="M629.05,1399.5l-6.53,1.85c-.48,3.2-.57,6.51-1.5,9.56-2.85,9.36,1.27,15.64,8.62,20.56a94.32,94.32,0,0,0,8.45,4.75c2.4,1.26,4.71.76,6.81-.77,3-2.23,5.28-5.06,5.91-8.85a27.3,27.3,0,0,0-5.31-21.73C641.33,1399.36,635.32,1398.86,629.05,1399.5Z" transform="translate(0.31 1)"/><path class="cls-2" d="M2391.46,1768.21c-11.46.43-20,5.77-25.42,16-2.17,4.12-.61,7.09,4.2,7.65,6.84.81,13.86.72,20.51,2.27,7.25,1.69,8.53-.19,10.36-6.42a61.26,61.26,0,0,0,1.37-6.93C2402.48,1771.5,2399.17,1767.93,2391.46,1768.21Z" transform="translate(0.31 1)"/><path class="cls-2" d="M2535.49,1268a35.42,35.42,0,0,0-6.92,2c-3.75,1.48-5.57,4.45-5.73,7-.55,7.77,3.37,14.71,8.89,15.47,6.42.88,12.92-.06,18.37-4.07a8,8,0,0,0,3-8.64C2551,1270.2,2545.26,1266.32,2535.49,1268Z" transform="translate(0.31 1)"/><path class="cls-2" d="M2441.92,1336.11c-6.51,1-9.66,5.49-11.36,11.24-2.11,7.14,1.21,11.75,8.77,12.5,1.2.11,2.42,0,3.64,0v.19c2-.13,4.06-.11,6.06-.41,11.17-1.68,13.61-7.5,7.3-16.67C2452.76,1337.78,2448.22,1335.19,2441.92,1336.11Z" transform="translate(0.31 1)"/><path class="cls-2" d="M2345.18,1774a47.68,47.68,0,0,0-11.61-3,21.37,21.37,0,0,0-21.37,12.71c-1.28,2.93.62,6,3.91,5.68,6.39-.56,12.77-2,18.17.67,5.44.52,8.85-1.34,12.89-6.51C2350.56,1779.14,2350,1775.75,2345.18,1774Z" transform="translate(0.31 1)"/><path class="cls-2" d="M2277.5,1783.67a49.86,49.86,0,0,0-6.86-1.15,53.26,53.26,0,0,0-6.21.89,13.45,13.45,0,0,0-9.46,11.3c-.25,3.52,2.77,6.08,9.3,7.88.39.11.77.23,1.16.33,2.9.81,5.58.5,7.79-1.74a104.18,104.18,0,0,0,7.51-7.8A6.17,6.17,0,0,0,2277.5,1783.67Z" transform="translate(0.31 1)"/><path class="cls-2" d="M2537.61,1231.69c-7-1.84-13.87-1.49-19.57,3.38s-5.72,10.38-.31,14.29c1.32,1,2.53,2.05,3.9,2.91a4.08,4.08,0,0,0,5.53-.6c3.85-4.17,7.64-8.4,11.25-12.77,1-1.16,1.18-2.92,1.76-4.46C2539.18,1233.33,2538.55,1231.93,2537.61,1231.69Z" transform="translate(0.31 1)"/><path class="cls-2" d="M2500,1254.52c-9-2.82-19.74,4.3-20.79,13.67-.39,3.49,3.16,7.24,6.73,7.11.39,0,1,0,1.14-.18,2.7-4.69,7.6-3.34,11.64-4.48,4.66-1.32,7.09-7.31,5.47-12A6.27,6.27,0,0,0,2500,1254.52Z" transform="translate(0.31 1)"/><path class="cls-2" d="M2602.59,1185.18c-7.17-.07-17.74,6.86-20.4,13.41a7.6,7.6,0,0,0-.24,1.19c-.58,2.39,1.47,5.24,3.85,5.08a33.16,33.16,0,0,0,14-3.65c4.74-2.63,6.47-7,6.72-12.16C2606.61,1187.18,2604.53,1185.2,2602.59,1185.18Z" transform="translate(0.31 1)"/><path class="cls-2" d="M2567.94,1207.1a12,12,0,0,0-11.4,2.44,52.14,52.14,0,0,0-6.51,7.16c-1.79,2.21-3.62,4.81-1.9,7.68s4.46.45,6.71.76c3.54.59,7.15,2,10.42-.79a17.35,17.35,0,0,0,6-12.77A4.27,4.27,0,0,0,2567.94,1207.1Z" transform="translate(0.31 1)"/><path class="cls-2" d="M1889.61,1484.88a45.91,45.91,0,0,1-20-4.29c-10-4.58-20.75-6.38-33.83-10.65,4.44,5.19,8,6,11.4,7.22,6.85,2.43,13.79,4.61,20.64,7,8.57,3,17.29,3.16,26.49,2.14C1892.83,1484.44,1891.11,1484.86,1889.61,1484.88Z" transform="translate(0.31 1)"/><path class="cls-2" d="M2218.9,1857.47c-1,.73-1.87,1.06-2.11,1.66a2.13,2.13,0,0,0,1.41,2.91c4.22,1.38,8.48,2.71,13,2.62a2.3,2.3,0,0,0,1.71-1.31,2.5,2.5,0,0,0-.57-2.16C2228.39,1857.55,2223.26,1858.43,2218.9,1857.47Z" transform="translate(0.31 1)"/><path class="cls-2" d="M2481.67,1287a8.49,8.49,0,0,0-4.74,3.27,1.58,1.58,0,0,0-.29,1.11c.08.29.57.73.8.69a8,8,0,0,0,5.62-3.81,1.06,1.06,0,0,0-.28-1C2482.53,1287.08,2482.08,1287.1,2481.67,1287Z" transform="translate(0.31 1)"/></g></svg>